<svg width="33" height="32" viewBox="0 0 33 32" fill="none" xmlns="http://www.w3.org/2000/svg">
<mask id="mask0_980_1970" style="mask-type:luminance" maskUnits="userSpaceOnUse" x="0" y="0" width="33" height="32">
<path d="M32.6733 0H0V32H32.6733V0Z" fill="white"/>
</mask>
<g mask="url(#mask0_980_1970)">
<path d="M0 15.36C0 8.11923 0 4.49885 2.29675 2.24942C4.5935 0 8.29006 0 15.6832 0H16.9901C24.3832 0 28.0798 0 30.3765 2.24942C32.6733 4.49885 32.6733 8.11923 32.6733 15.36V16.64C32.6733 23.8808 32.6733 27.5012 30.3765 29.7506C28.0798 32 24.3832 32 16.9901 32H15.6832C8.29006 32 4.5935 32 2.29675 29.7506C0 27.5012 0 23.8808 0 16.64V15.36Z" fill="white"/>
<path d="M17.3869 23.0534C9.94011 23.0534 5.69262 18.0534 5.51562 9.7334H9.24583C9.36836 15.8401 12.1183 18.4267 14.2965 18.9601V9.7334H17.809V15C19.96 14.7734 22.2196 12.3734 22.982 9.7334H26.4945C25.9091 12.9867 23.4586 15.3867 21.716 16.3734C23.4586 17.1734 26.2496 19.2667 27.3114 23.0534H23.445C22.6145 20.5201 20.5454 18.5601 17.809 18.2934V23.0534H17.3869Z" fill="black"/>
</g>
</svg>
