<svg width="43" height="32" viewBox="0 0 43 32" fill="none" xmlns="http://www.w3.org/2000/svg">
<path d="M42.1013 4.99657C41.6068 3.03086 40.1491 1.48114 38.3001 0.955429C34.9461 0 21.5 0 21.5 0C21.5 0 8.0539 0 4.6999 0.955429C2.8509 1.48114 1.3932 3.03086 0.8987 4.99657C0 8.56229 0 16 0 16C0 16 0 23.4377 0.8987 27.0034C1.3932 28.9691 2.8509 30.5189 4.6999 31.0446C8.0539 32 21.5 32 21.5 32C21.5 32 34.9461 32 38.3001 31.0446C40.1491 30.5189 41.6068 28.9691 42.1013 27.0034C43 23.4377 43 16 43 16C43 16 43 8.56229 42.1013 4.99657Z" fill="white"/>
<path d="M17.1992 22.8569L28.3706 15.9997L17.1992 9.14258V22.8569Z" fill="black"/>
</svg>
