<svg width="32" height="32" viewBox="0 0 32 32" fill="none" xmlns="http://www.w3.org/2000/svg">
<g clip-path="url(#clip0_951_7974)">
<path d="M16 32C24.8366 32 32 24.8366 32 16C32 7.16344 24.8366 0 16 0C7.16344 0 0 7.16344 0 16C0 24.8366 7.16344 32 16 32Z" fill="black"/>
<path fill-rule="evenodd" clip-rule="evenodd" d="M7.24138 15.8312C11.9057 13.799 15.016 12.4593 16.5722 11.812C21.0156 9.96384 21.9389 9.64279 22.5407 9.63219C22.673 9.62986 22.969 9.66266 23.1607 9.81821C23.3226 9.94956 23.3671 10.127 23.3884 10.2515C23.4097 10.376 23.4363 10.6597 23.4152 10.8814C23.1744 13.4114 22.1325 19.551 21.6024 22.3846C21.3781 23.5836 20.9365 23.9856 20.509 24.0249C19.5798 24.1104 18.8743 23.4109 17.9743 22.821C16.5661 21.8979 15.7706 21.3233 14.4037 20.4225C12.824 19.3815 13.848 18.8093 14.7483 17.8743C14.9839 17.6296 19.0778 13.9059 19.157 13.5681C19.1669 13.5258 19.1761 13.3684 19.0825 13.2852C18.989 13.2021 18.8509 13.2305 18.7513 13.2531C18.61 13.2852 16.3604 14.7721 12.0024 17.7139C11.3638 18.1524 10.7855 18.366 10.2672 18.3548C9.69596 18.3425 8.59704 18.0318 7.78011 17.7662C6.77811 17.4405 5.98174 17.2683 6.05108 16.7152C6.0872 16.427 6.48397 16.1324 7.24138 15.8312Z" fill="white"/>
</g>
<defs>
<clipPath id="clip0_951_7974">
<rect width="32" height="32" fill="white"/>
</clipPath>
</defs>
</svg>
