<svg width="33" height="32" viewBox="0 0 33 32" fill="none" xmlns="http://www.w3.org/2000/svg">
<g clip-path="url(#clip0_951_7978)">
<mask id="mask0_951_7978" style="mask-type:luminance" maskUnits="userSpaceOnUse" x="0" y="0" width="33" height="32">
<path d="M32.8373 0H0.164062V32H32.8373V0Z" fill="white"/>
</mask>
<g mask="url(#mask0_951_7978)">
<path d="M0.164062 15.36C0.164062 8.11923 0.164062 4.49885 2.46081 2.24942C4.75756 0 8.45412 0 15.8472 0H17.1542C24.5473 0 28.2438 0 30.5406 2.24942C32.8373 4.49885 32.8373 8.11923 32.8373 15.36V16.64C32.8373 23.8808 32.8373 27.5012 30.5406 29.7506C28.2438 32 24.5473 32 17.1542 32H15.8472C8.45412 32 4.75756 32 2.46081 29.7506C0.164062 27.5012 0.164062 23.8808 0.164062 16.64V15.36Z" fill="black"/>
<path d="M17.551 23.0534C10.1042 23.0534 5.85668 18.0534 5.67969 9.7334H9.4099C9.53242 15.8401 12.2824 18.4267 14.4606 18.9601V9.7334H17.9731V15C20.124 14.7734 22.3837 12.3734 23.1461 9.7334H26.6585C26.0731 12.9867 23.6226 15.3867 21.8801 16.3734C23.6226 17.1734 26.4136 19.2667 27.4755 23.0534H23.609C22.7786 20.5201 20.7095 18.5601 17.9731 18.2934V23.0534H17.551Z" fill="white"/>
</g>
</g>
<defs>
<clipPath id="clip0_951_7978">
<rect width="33" height="32" fill="white"/>
</clipPath>
</defs>
</svg>
