<svg width="695" height="478" viewBox="0 0 695 478" fill="none" xmlns="http://www.w3.org/2000/svg">
<g opacity="0.1">
<path d="M-1.34523 1026.18C-1.34523 999.511 -22.3345 978.22 -47.832 978.22L-47.832 931.43C3.37587 931.43 44.5667 974.033 44.5667 1026.18H-1.34523Z" fill="#262D74" fill-opacity="0.8"/>
<path d="M44.5667 1026.18C44.5667 974.033 85.6006 931.43 136.614 931.43V978.22C111.214 978.22 90.3038 999.511 90.3038 1026.18H44.5667Z" fill="#262D74" fill-opacity="0.8"/>
<path d="M-1.31983 931.43H44.918L-1.31983 836.325H-47.1293L-1.31983 931.43Z" fill="#262D74" fill-opacity="0.8"/>
<path d="M45.6206 931.43H91.4303L137.668 836.325H91.4303L45.6206 931.43Z" fill="#262D74" fill-opacity="0.8"/>
<path d="M-1.34523 836.325C-1.34523 809.657 -22.3345 788.366 -47.832 788.366L-47.832 741.577C3.37587 741.577 44.5667 784.179 44.5667 836.325H-1.34523Z" fill="#262D74" fill-opacity="0.8"/>
<path d="M44.5667 836.325C44.5667 784.179 85.6006 741.577 136.614 741.577V788.366C111.214 788.366 90.3038 809.657 90.3038 836.325H44.5667Z" fill="#262D74" fill-opacity="0.8"/>
<path d="M-1.31983 741.577H44.918L-1.31984 646.472H-47.1294L-1.31983 741.577Z" fill="#262D74" fill-opacity="0.8"/>
<path d="M45.6206 741.577H91.4302L137.668 646.472H91.4302L45.6206 741.577Z" fill="#262D74" fill-opacity="0.8"/>
<path d="M91.1812 274.844C91.1812 300.944 112.17 321.782 137.668 321.782L137.668 367.576C86.4601 367.576 45.2693 325.88 45.2693 274.844H91.1812Z" fill="#262D74" fill-opacity="0.8"/>
<path d="M45.2693 274.844C45.2693 325.88 4.23537 367.576 -46.778 367.576L-46.778 321.782C-21.3776 321.782 -0.467819 300.944 -0.467823 274.844H45.2693Z" fill="#262D74" fill-opacity="0.8"/>
<path d="M91.1558 367.576H44.918L91.1558 460.658H136.965L91.1558 367.576Z" fill="#262D74" fill-opacity="0.8"/>
<path d="M44.2153 367.576H-1.59428L-47.832 460.658H-1.59427L44.2153 367.576Z" fill="#262D74" fill-opacity="0.8"/>
<path d="M91.1812 460.658C91.1812 486.758 112.171 507.596 137.668 507.596L137.668 553.39C86.4601 553.39 45.2693 511.694 45.2693 460.658H91.1812Z" fill="#262D74" fill-opacity="0.8"/>
<path d="M45.2693 460.658C45.2693 511.694 4.2354 553.39 -46.778 553.391L-46.778 507.596C-21.3776 507.596 -0.467796 486.758 -0.4678 460.658H45.2693Z" fill="#262D74" fill-opacity="0.8"/>
<path d="M91.1558 553.39H44.918L91.1558 646.472H136.965L91.1558 553.39Z" fill="#262D74" fill-opacity="0.8"/>
<path d="M44.2154 553.39H-1.59425L-47.832 646.472H-1.59425L44.2154 553.39Z" fill="#262D74" fill-opacity="0.8"/>
<path d="M-1.34527 275.368C-1.34527 248.7 -22.3346 227.409 -47.832 227.409L-47.832 180.619C3.37583 180.619 44.5666 223.222 44.5666 275.368H-1.34527Z" fill="#262D74" fill-opacity="0.8"/>
<path d="M44.5666 275.368C44.5666 223.222 85.6006 180.619 136.614 180.619V227.409C111.214 227.409 90.3037 248.7 90.3037 275.368H44.5666Z" fill="#262D74" fill-opacity="0.8"/>
<path d="M-1.31987 180.619H44.918L-1.31987 85.5144H-47.1294L-1.31987 180.619Z" fill="#262D74" fill-opacity="0.8"/>
<path d="M45.6206 180.619H91.4302L137.668 85.5144H91.4302L45.6206 180.619Z" fill="#262D74" fill-opacity="0.8"/>
<path d="M91.1812 -199.004C91.1812 -172.336 112.17 -151.045 137.668 -151.045L137.668 -104.255C86.4601 -104.255 45.2693 -146.858 45.2693 -199.004H91.1812Z" fill="#262D74" fill-opacity="0.8"/>
<path d="M45.2693 -199.004C45.2693 -146.858 4.23534 -104.255 -46.7781 -104.255L-46.7781 -151.045C-21.3776 -151.045 -0.467857 -172.336 -0.467861 -199.004H45.2693Z" fill="#262D74" fill-opacity="0.8"/>
<path d="M91.1558 -104.255H44.9179L91.1558 -9.15009H136.965L91.1558 -104.255Z" fill="#262D74" fill-opacity="0.8"/>
<path d="M44.2153 -104.255H-1.59431L-47.832 -9.15009H-1.5943L44.2153 -104.255Z" fill="#262D74" fill-opacity="0.8"/>
<path d="M91.1812 -9.15009C91.1812 17.518 112.17 38.8087 137.668 38.8087L137.668 85.5986C86.4601 85.5986 45.2693 42.9958 45.2693 -9.15009H91.1812Z" fill="#262D74" fill-opacity="0.8"/>
<path d="M45.2693 -9.15009C45.2693 42.9958 4.23537 85.5986 -46.778 85.5986L-46.778 38.8087C-21.3776 38.8087 -0.467831 17.518 -0.467831 -9.15009H45.2693Z" fill="#262D74" fill-opacity="0.8"/>
<path d="M91.1558 85.5986H44.918L91.1558 85.5144H136.965L91.1558 85.5986Z" fill="#262D74" fill-opacity="0.8"/>
<path d="M44.2153 85.5986H-1.59429L-47.832 85.5144H-1.59428L44.2153 85.5986Z" fill="#262D74" fill-opacity="0.8"/>
<path d="M184.155 746.927C184.155 720.259 163.165 698.969 137.668 698.969V652.179C188.876 652.179 230.067 694.782 230.067 746.927H184.155Z" fill="#262D74" fill-opacity="0.8"/>
<path d="M230.067 746.927C230.067 694.782 271.101 652.179 322.114 652.179V698.969C296.714 698.969 275.804 720.259 275.804 746.927H230.067Z" fill="#262D74" fill-opacity="0.8"/>
<path d="M184.18 652.179H230.418L184.18 557.074H138.371L184.18 652.179Z" fill="#262D74" fill-opacity="0.8"/>
<path d="M231.121 652.179H276.93L323.168 557.074H276.93L231.121 652.179Z" fill="#262D74" fill-opacity="0.8"/>
<path d="M184.155 557.074C184.155 530.406 163.165 509.115 137.668 509.115V462.325C188.876 462.325 230.067 504.928 230.067 557.074H184.155Z" fill="#262D74" fill-opacity="0.8"/>
<path d="M230.067 557.074C230.067 504.928 271.101 462.325 322.114 462.325V509.115C296.714 509.115 275.804 530.406 275.804 557.074H230.067Z" fill="#262D74" fill-opacity="0.8"/>
<path d="M184.18 462.325H230.418L184.18 367.22H138.371L184.18 462.325Z" fill="#262D74" fill-opacity="0.8"/>
<path d="M231.121 462.325H276.93L323.168 367.22H276.93L231.121 462.325Z" fill="#262D74" fill-opacity="0.8"/>
<path d="M276.681 185.97C276.681 212.071 297.67 232.909 323.168 232.909L323.168 278.703C271.96 278.703 230.769 237.007 230.769 185.97H276.681Z" fill="#262D74" fill-opacity="0.8"/>
<path d="M230.769 185.97C230.769 237.007 189.735 278.703 138.722 278.703V232.909C164.122 232.909 185.032 212.071 185.032 185.97H230.769Z" fill="#262D74" fill-opacity="0.8"/>
<path d="M276.656 274.139H230.418L276.656 367.22H322.465L276.656 274.139Z" fill="#262D74" fill-opacity="0.8"/>
<path d="M229.715 274.139H183.906L137.668 367.22H183.906L229.715 274.139Z" fill="#262D74" fill-opacity="0.8"/>
<path d="M184.155 185.97C184.155 159.302 163.165 138.012 137.668 138.012V91.2216C188.876 91.2216 230.067 133.824 230.067 185.97H184.155Z" fill="#262D74" fill-opacity="0.8"/>
<path d="M230.067 185.97C230.067 133.824 271.101 91.2216 322.114 91.2216V138.012C296.714 138.012 275.804 159.302 275.804 185.97H230.067Z" fill="#262D74" fill-opacity="0.8"/>
<path d="M184.18 91.2216H230.418L184.18 91.3057H138.371L184.18 91.2216Z" fill="#262D74" fill-opacity="0.8"/>
<path d="M231.121 91.2216H276.93L323.168 91.3057H276.93L231.121 91.2216Z" fill="#262D74" fill-opacity="0.8"/>
<path d="M184.155 91.3057C184.155 64.6377 163.165 43.347 137.668 43.347V-3.44293C188.876 -3.44293 230.067 39.1599 230.067 91.3057H184.155Z" fill="#262D74" fill-opacity="0.8"/>
<path d="M230.067 91.3057C230.067 39.1599 271.101 -3.44293 322.114 -3.44293V43.347C296.714 43.347 275.804 64.6377 275.804 91.3057H230.067Z" fill="#262D74" fill-opacity="0.8"/>
<path d="M184.18 -3.44293H230.418L184.18 -98.5479L138.371 -98.5478L184.18 -3.44293Z" fill="#262D74" fill-opacity="0.8"/>
<path d="M231.121 -3.44293H276.93L323.168 -98.5479H276.93L231.121 -3.44293Z" fill="#262D74" fill-opacity="0.8"/>
<path d="M276.681 -478.255C276.681 -451.587 297.67 -430.296 323.168 -430.296L323.168 -383.506C271.96 -383.506 230.769 -426.109 230.769 -478.255L276.681 -478.255Z" fill="#262D74" fill-opacity="0.8"/>
<path d="M230.769 -478.255C230.769 -426.109 189.735 -383.506 138.722 -383.506V-430.296C164.122 -430.296 185.032 -451.587 185.032 -478.255L230.769 -478.255Z" fill="#262D74" fill-opacity="0.8"/>
<path d="M276.656 -383.506H230.418L276.656 -288.401H322.465L276.656 -383.506Z" fill="#262D74" fill-opacity="0.8"/>
<path d="M229.715 -383.506H183.906L137.668 -288.401H183.906L229.715 -383.506Z" fill="#262D74" fill-opacity="0.8"/>
<path d="M276.681 -288.401C276.681 -261.733 297.67 -240.443 323.168 -240.443V-193.653C271.96 -193.653 230.769 -236.256 230.769 -288.401H276.681Z" fill="#262D74" fill-opacity="0.8"/>
<path d="M230.769 -288.401C230.769 -236.256 189.735 -193.653 138.722 -193.653L138.722 -240.443C164.122 -240.443 185.032 -261.733 185.032 -288.401L230.769 -288.401Z" fill="#262D74" fill-opacity="0.8"/>
<path d="M276.656 -193.653H230.418L276.656 -98.5479H322.465L276.656 -193.653Z" fill="#262D74" fill-opacity="0.8"/>
<path d="M229.715 -193.653H183.906L137.668 -98.5478L183.906 -98.5479L229.715 -193.653Z" fill="#262D74" fill-opacity="0.8"/>
<path d="M369.655 1016.41C369.655 989.737 348.665 968.446 323.168 968.446V921.656C374.376 921.656 415.567 964.259 415.567 1016.41H369.655Z" fill="#262D74" fill-opacity="0.8"/>
<path d="M415.567 1016.41C415.567 964.259 456.601 921.656 507.614 921.656V968.446C482.214 968.446 461.304 989.737 461.304 1016.41H415.567Z" fill="#262D74" fill-opacity="0.8"/>
<path d="M369.68 921.656H415.918L369.68 826.552H323.871L369.68 921.656Z" fill="#262D74" fill-opacity="0.8"/>
<path d="M416.621 921.656L462.43 921.656L508.668 826.552H462.43L416.621 921.656Z" fill="#262D74" fill-opacity="0.8"/>
<path d="M369.655 826.552C369.655 799.883 348.665 778.593 323.168 778.593V731.803C374.376 731.803 415.567 774.406 415.567 826.552H369.655Z" fill="#262D74" fill-opacity="0.8"/>
<path d="M415.567 826.552C415.567 774.406 456.601 731.803 507.614 731.803V778.593C482.214 778.593 461.304 799.883 461.304 826.552H415.567Z" fill="#262D74" fill-opacity="0.8"/>
<path d="M369.68 731.803H415.918L369.68 636.698H323.871L369.68 731.803Z" fill="#262D74" fill-opacity="0.8"/>
<path d="M416.621 731.803H462.43L508.668 636.698H462.43L416.621 731.803Z" fill="#262D74" fill-opacity="0.8"/>
<path d="M462.181 265.07C462.181 291.17 483.17 312.008 508.668 312.008L508.668 357.802C457.46 357.802 416.269 316.106 416.269 265.07H462.181Z" fill="#262D74" fill-opacity="0.8"/>
<path d="M416.269 265.07C416.269 316.106 375.235 357.802 324.222 357.802V312.008C349.622 312.008 370.532 291.17 370.532 265.07H416.269Z" fill="#262D74" fill-opacity="0.8"/>
<path d="M462.156 357.802H415.918L462.156 450.884H507.965L462.156 357.802Z" fill="#262D74" fill-opacity="0.8"/>
<path d="M415.215 357.802H369.406L323.168 450.884H369.406L415.215 357.802Z" fill="#262D74" fill-opacity="0.8"/>
<path d="M462.181 450.884C462.181 476.984 483.171 497.822 508.668 497.822V543.617C457.46 543.617 416.269 501.92 416.269 450.884H462.181Z" fill="#262D74" fill-opacity="0.8"/>
<path d="M416.269 450.884C416.269 501.92 375.235 543.617 324.222 543.617V497.822C349.622 497.822 370.532 476.984 370.532 450.884H416.269Z" fill="#262D74" fill-opacity="0.8"/>
<path d="M462.156 543.617H415.918L462.156 636.698H507.965L462.156 543.617Z" fill="#262D74" fill-opacity="0.8"/>
<path d="M415.215 543.617H369.406L323.168 636.698H369.406L415.215 543.617Z" fill="#262D74" fill-opacity="0.8"/>
<path d="M369.655 265.594C369.655 238.926 348.665 217.635 323.168 217.635V170.846C374.376 170.846 415.567 213.448 415.567 265.594H369.655Z" fill="#262D74" fill-opacity="0.8"/>
<path d="M415.567 265.594C415.567 213.448 456.601 170.846 507.614 170.846V217.635C482.214 217.635 461.304 238.926 461.304 265.594H415.567Z" fill="#262D74" fill-opacity="0.8"/>
<path d="M369.68 170.846H415.918L369.68 75.7407H323.871L369.68 170.846Z" fill="#262D74" fill-opacity="0.8"/>
<path d="M416.621 170.846H462.43L508.668 75.7407H462.43L416.621 170.846Z" fill="#262D74" fill-opacity="0.8"/>
<path d="M462.181 -208.777C462.181 -182.109 483.17 -160.819 508.668 -160.819L508.668 -114.029C457.46 -114.029 416.269 -156.632 416.269 -208.777H462.181Z" fill="#262D74" fill-opacity="0.8"/>
<path d="M416.269 -208.777C416.269 -156.632 375.235 -114.029 324.222 -114.029V-160.819C349.622 -160.819 370.532 -182.109 370.532 -208.777H416.269Z" fill="#262D74" fill-opacity="0.8"/>
<path d="M462.156 -114.029H415.918L462.156 -18.9239L507.965 -18.9239L462.156 -114.029Z" fill="#262D74" fill-opacity="0.8"/>
<path d="M415.215 -114.029H369.406L323.168 -18.9239H369.406L415.215 -114.029Z" fill="#262D74" fill-opacity="0.8"/>
<path d="M462.181 -18.9239C462.181 7.74417 483.17 29.035 508.668 29.035V75.8248C457.46 75.8248 416.269 33.222 416.269 -18.9239H462.181Z" fill="#262D74" fill-opacity="0.8"/>
<path d="M416.269 -18.9239C416.269 33.222 375.235 75.8248 324.222 75.8248V29.035C349.622 29.0349 370.532 7.74417 370.532 -18.9239H416.269Z" fill="#262D74" fill-opacity="0.8"/>
<path d="M462.156 75.8248H415.918L462.156 75.7407H507.965L462.156 75.8248Z" fill="#262D74" fill-opacity="0.8"/>
<path d="M415.215 75.8248H369.406L323.168 75.7407H369.406L415.215 75.8248Z" fill="#262D74" fill-opacity="0.8"/>
<path d="M555.155 734.361C555.155 707.693 534.165 686.402 508.668 686.402V639.613C559.876 639.613 601.067 682.215 601.067 734.361H555.155Z" fill="#262D74" fill-opacity="0.8"/>
<path d="M601.067 734.361C601.067 682.215 642.101 639.613 693.114 639.613V686.402C667.714 686.402 646.804 707.693 646.804 734.361H601.067Z" fill="#262D74" fill-opacity="0.8"/>
<path d="M555.18 639.613H601.418L555.18 544.508H509.371L555.18 639.613Z" fill="#262D74" fill-opacity="0.8"/>
<path d="M602.121 639.613H647.93L694.168 544.508H647.93L602.121 639.613Z" fill="#262D74" fill-opacity="0.8"/>
<path d="M555.155 544.508C555.155 517.84 534.165 496.549 508.668 496.549V449.759C559.876 449.759 601.067 492.362 601.067 544.508H555.155Z" fill="#262D74" fill-opacity="0.8"/>
<path d="M601.067 544.508C601.067 492.362 642.101 449.759 693.114 449.759V496.549C667.714 496.549 646.804 517.84 646.804 544.508H601.067Z" fill="#262D74" fill-opacity="0.8"/>
<path d="M555.18 449.759H601.418L555.18 354.654H509.371L555.18 449.759Z" fill="#262D74" fill-opacity="0.8"/>
<path d="M602.121 449.759H647.93L694.168 354.654H647.93L602.121 449.759Z" fill="#262D74" fill-opacity="0.8"/>
<path d="M647.681 173.404C647.681 199.505 668.671 220.342 694.168 220.342V266.137C642.96 266.137 601.769 224.44 601.769 173.404H647.681Z" fill="#262D74" fill-opacity="0.8"/>
<path d="M601.769 173.404C601.769 224.44 560.735 266.137 509.722 266.137V220.342C535.122 220.342 556.032 199.505 556.032 173.404H601.769Z" fill="#262D74" fill-opacity="0.8"/>
<path d="M647.656 261.573H601.418L647.656 354.654H693.465L647.656 261.573Z" fill="#262D74" fill-opacity="0.8"/>
<path d="M600.715 261.573H554.906L508.668 354.654H554.906L600.715 261.573Z" fill="#262D74" fill-opacity="0.8"/>
<path d="M555.155 173.404C555.155 146.736 534.165 125.445 508.668 125.445V78.6552C559.876 78.6552 601.067 121.258 601.067 173.404H555.155Z" fill="#262D74" fill-opacity="0.8"/>
<path d="M601.067 173.404C601.067 121.258 642.101 78.6552 693.114 78.6552V125.445C667.714 125.445 646.804 146.736 646.804 173.404H601.067Z" fill="#262D74" fill-opacity="0.8"/>
<path d="M555.18 78.6552H601.418L555.18 78.7394H509.371L555.18 78.6552Z" fill="#262D74" fill-opacity="0.8"/>
<path d="M602.121 78.6552H647.93L694.168 78.7394H647.93L602.121 78.6552Z" fill="#262D74" fill-opacity="0.8"/>
<path d="M555.155 78.7394C555.155 52.0714 534.165 30.7806 508.668 30.7806V-16.0093C559.876 -16.0093 601.067 26.5936 601.067 78.7394H555.155Z" fill="#262D74" fill-opacity="0.8"/>
<path d="M601.067 78.7394C601.067 26.5936 642.101 -16.0092 693.114 -16.0093V30.7806C667.714 30.7806 646.804 52.0714 646.804 78.7394H601.067Z" fill="#262D74" fill-opacity="0.8"/>
<path d="M555.18 -16.0093H601.418L555.18 -111.114L509.371 -111.114L555.18 -16.0093Z" fill="#262D74" fill-opacity="0.8"/>
<path d="M602.121 -16.0093H647.93L694.168 -111.114H647.93L602.121 -16.0093Z" fill="#262D74" fill-opacity="0.8"/>
<path d="M647.681 -490.821C647.681 -464.153 668.671 -442.862 694.168 -442.862V-396.073C642.96 -396.073 601.769 -438.675 601.769 -490.821L647.681 -490.821Z" fill="#262D74" fill-opacity="0.8"/>
<path d="M601.769 -490.821C601.769 -438.675 560.735 -396.073 509.722 -396.073V-442.862C535.122 -442.862 556.032 -464.153 556.032 -490.821L601.769 -490.821Z" fill="#262D74" fill-opacity="0.8"/>
<path d="M647.656 -396.073H601.418L647.656 -300.968H693.465L647.656 -396.073Z" fill="#262D74" fill-opacity="0.8"/>
<path d="M600.715 -396.073H554.906L508.668 -300.968H554.906L600.715 -396.073Z" fill="#262D74" fill-opacity="0.8"/>
<path d="M647.681 -300.968C647.681 -274.3 668.671 -253.009 694.168 -253.009V-206.219C642.96 -206.219 601.769 -248.822 601.769 -300.968H647.681Z" fill="#262D74" fill-opacity="0.8"/>
<path d="M601.769 -300.968C601.769 -248.822 560.735 -206.219 509.722 -206.219V-253.009C535.122 -253.009 556.032 -274.3 556.032 -300.968L601.769 -300.968Z" fill="#262D74" fill-opacity="0.8"/>
<path d="M647.656 -206.219H601.418L647.656 -111.114H693.465L647.656 -206.219Z" fill="#262D74" fill-opacity="0.8"/>
<path d="M600.715 -206.219H554.906L508.668 -111.114L554.906 -111.114L600.715 -206.219Z" fill="#262D74" fill-opacity="0.8"/>
<path d="M-1.34523 1026.18C-1.34523 999.511 -22.3345 978.22 -47.832 978.22L-47.832 931.43C3.37587 931.43 44.5667 974.033 44.5667 1026.18H-1.34523Z" fill="#4764D0"/>
<path d="M44.5667 1026.18C44.5667 974.033 85.6006 931.43 136.614 931.43V978.22C111.214 978.22 90.3038 999.511 90.3038 1026.18H44.5667Z" fill="#4764D0"/>
<path d="M-1.31983 931.43H44.918L-1.31983 836.325H-47.1293L-1.31983 931.43Z" fill="#4764D0"/>
<path d="M45.6206 931.43H91.4303L137.668 836.325H91.4303L45.6206 931.43Z" fill="#4764D0"/>
<path d="M-1.34523 836.325C-1.34523 809.657 -22.3345 788.366 -47.832 788.366L-47.832 741.577C3.37587 741.577 44.5667 784.179 44.5667 836.325H-1.34523Z" fill="#4764D0"/>
<path d="M44.5667 836.325C44.5667 784.179 85.6006 741.577 136.614 741.577V788.366C111.214 788.366 90.3038 809.657 90.3038 836.325H44.5667Z" fill="#4764D0"/>
<path d="M-1.31983 741.577H44.918L-1.31984 646.472H-47.1294L-1.31983 741.577Z" fill="#4764D0"/>
<path d="M45.6206 741.577H91.4302L137.668 646.472H91.4302L45.6206 741.577Z" fill="#4764D0"/>
<path d="M91.1812 274.844C91.1812 300.944 112.17 321.782 137.668 321.782L137.668 367.576C86.4601 367.576 45.2693 325.88 45.2693 274.844H91.1812Z" fill="#4764D0"/>
<path d="M45.2693 274.844C45.2693 325.88 4.23537 367.576 -46.778 367.576L-46.778 321.782C-21.3776 321.782 -0.467819 300.944 -0.467823 274.844H45.2693Z" fill="#4764D0"/>
<path d="M91.1558 367.576H44.918L91.1558 460.658H136.965L91.1558 367.576Z" fill="#4764D0"/>
<path d="M44.2153 367.576H-1.59428L-47.832 460.658H-1.59427L44.2153 367.576Z" fill="#4764D0"/>
<path d="M91.1812 460.658C91.1812 486.758 112.171 507.596 137.668 507.596L137.668 553.39C86.4601 553.39 45.2693 511.694 45.2693 460.658H91.1812Z" fill="#4764D0"/>
<path d="M45.2693 460.658C45.2693 511.694 4.2354 553.39 -46.778 553.391L-46.778 507.596C-21.3776 507.596 -0.467796 486.758 -0.4678 460.658H45.2693Z" fill="#4764D0"/>
<path d="M91.1558 553.39H44.918L91.1558 646.472H136.965L91.1558 553.39Z" fill="#4764D0"/>
<path d="M44.2154 553.39H-1.59425L-47.832 646.472H-1.59425L44.2154 553.39Z" fill="#4764D0"/>
<path d="M-1.34527 275.368C-1.34527 248.7 -22.3346 227.409 -47.832 227.409L-47.832 180.619C3.37583 180.619 44.5666 223.222 44.5666 275.368H-1.34527Z" fill="#4764D0"/>
<path d="M-1.31987 180.619H44.918L-1.31987 85.5144H-47.1294L-1.31987 180.619Z" fill="#4764D0"/>
<path d="M91.1812 -199.004C91.1812 -172.336 112.17 -151.045 137.668 -151.045L137.668 -104.255C86.4601 -104.255 45.2693 -146.858 45.2693 -199.004H91.1812Z" fill="#4764D0"/>
<path d="M45.2693 -199.004C45.2693 -146.858 4.23534 -104.255 -46.7781 -104.255L-46.7781 -151.045C-21.3776 -151.045 -0.467857 -172.336 -0.467861 -199.004H45.2693Z" fill="#4764D0"/>
<path d="M91.1558 -104.255H44.9179L91.1558 -9.15009H136.965L91.1558 -104.255Z" fill="#4764D0"/>
<path d="M44.2153 -104.255H-1.59431L-47.832 -9.15009H-1.5943L44.2153 -104.255Z" fill="#4764D0"/>
<path d="M91.1812 -9.15009C91.1812 17.518 112.17 38.8087 137.668 38.8087L137.668 85.5986C86.4601 85.5986 45.2693 42.9958 45.2693 -9.15009H91.1812Z" fill="#4764D0"/>
<path d="M45.2693 -9.15009C45.2693 42.9958 4.23537 85.5986 -46.778 85.5986L-46.778 38.8087C-21.3776 38.8087 -0.467831 17.518 -0.467831 -9.15009H45.2693Z" fill="#4764D0"/>
<path d="M91.1558 85.5986H44.918L91.1558 85.5144H136.965L91.1558 85.5986Z" fill="#4764D0"/>
<path d="M44.2153 85.5986H-1.59429L-47.832 85.5144H-1.59428L44.2153 85.5986Z" fill="#4764D0"/>
<path d="M184.155 746.927C184.155 720.259 163.165 698.969 137.668 698.969V652.179C188.876 652.179 230.067 694.782 230.067 746.927H184.155Z" fill="#4764D0"/>
<path d="M230.067 746.927C230.067 694.782 271.101 652.179 322.114 652.179V698.969C296.714 698.969 275.804 720.259 275.804 746.927H230.067Z" fill="#4764D0"/>
<path d="M184.18 652.179H230.418L184.18 557.074H138.371L184.18 652.179Z" fill="#4764D0"/>
<path d="M231.121 652.179H276.93L323.168 557.074H276.93L231.121 652.179Z" fill="#4764D0"/>
<path d="M184.155 557.074C184.155 530.406 163.165 509.115 137.668 509.115V462.325C188.876 462.325 230.067 504.928 230.067 557.074H184.155Z" fill="#4764D0"/>
<path d="M184.155 91.3057C184.155 64.6377 163.165 43.347 137.668 43.347V-3.44293C188.876 -3.44293 230.067 39.1599 230.067 91.3057H184.155Z" fill="#4764D0"/>
<path d="M184.18 -3.44293H230.418L184.18 -98.5479L138.371 -98.5478L184.18 -3.44293Z" fill="#4764D0"/>
<path d="M231.121 -3.44293H276.93L323.168 -98.5479H276.93L231.121 -3.44293Z" fill="#4764D0"/>
<path d="M276.681 -478.255C276.681 -451.587 297.67 -430.296 323.168 -430.296L323.168 -383.506C271.96 -383.506 230.769 -426.109 230.769 -478.255L276.681 -478.255Z" fill="#4764D0"/>
<path d="M230.769 -478.255C230.769 -426.109 189.735 -383.506 138.722 -383.506V-430.296C164.122 -430.296 185.032 -451.587 185.032 -478.255L230.769 -478.255Z" fill="#4764D0"/>
<path d="M276.656 -383.506H230.418L276.656 -288.401H322.465L276.656 -383.506Z" fill="#4764D0"/>
<path d="M229.715 -383.506H183.906L137.668 -288.401H183.906L229.715 -383.506Z" fill="#4764D0"/>
<path d="M276.681 -288.401C276.681 -261.733 297.67 -240.443 323.168 -240.443V-193.653C271.96 -193.653 230.769 -236.256 230.769 -288.401H276.681Z" fill="#4764D0"/>
<path d="M230.769 -288.401C230.769 -236.256 189.735 -193.653 138.722 -193.653L138.722 -240.443C164.122 -240.443 185.032 -261.733 185.032 -288.401L230.769 -288.401Z" fill="#4764D0"/>
<path d="M276.656 -193.653H230.418L276.656 -98.5479H322.465L276.656 -193.653Z" fill="#4764D0"/>
<path d="M229.715 -193.653H183.906L137.668 -98.5478L183.906 -98.5479L229.715 -193.653Z" fill="#4764D0"/>
<path d="M369.655 1016.41C369.655 989.737 348.665 968.446 323.168 968.446V921.656C374.376 921.656 415.567 964.259 415.567 1016.41H369.655Z" fill="#4764D0"/>
<path d="M415.567 1016.41C415.567 964.259 456.601 921.656 507.614 921.656V968.446C482.214 968.446 461.304 989.737 461.304 1016.41H415.567Z" fill="#4764D0"/>
<path d="M369.68 921.656H415.918L369.68 826.552H323.871L369.68 921.656Z" fill="#4764D0"/>
<path d="M416.621 921.656L462.43 921.656L508.668 826.552H462.43L416.621 921.656Z" fill="#4764D0"/>
<path d="M369.655 826.552C369.655 799.883 348.665 778.593 323.168 778.593V731.803C374.376 731.803 415.567 774.406 415.567 826.552H369.655Z" fill="#4764D0"/>
<path d="M415.567 826.552C415.567 774.406 456.601 731.803 507.614 731.803V778.593C482.214 778.593 461.304 799.883 461.304 826.552H415.567Z" fill="#4764D0"/>
<path d="M369.68 731.803H415.918L369.68 636.698H323.871L369.68 731.803Z" fill="#4764D0"/>
<path d="M416.621 731.803H462.43L508.668 636.698H462.43L416.621 731.803Z" fill="#4764D0"/>
<path d="M462.156 543.617H415.918L462.156 636.698H507.965L462.156 543.617Z" fill="#4764D0"/>
<path d="M415.215 543.617H369.406L323.168 636.698H369.406L415.215 543.617Z" fill="#4764D0"/>
<path d="M462.181 -208.777C462.181 -182.109 483.17 -160.819 508.668 -160.819L508.668 -114.029C457.46 -114.029 416.269 -156.632 416.269 -208.777H462.181Z" fill="#4764D0"/>
<path d="M416.269 -208.777C416.269 -156.632 375.235 -114.029 324.222 -114.029V-160.819C349.622 -160.819 370.532 -182.109 370.532 -208.777H416.269Z" fill="#4764D0"/>
<path d="M462.156 -114.029H415.918L462.156 -18.9239L507.965 -18.9239L462.156 -114.029Z" fill="#4764D0"/>
<path d="M415.215 -114.029H369.406L323.168 -18.9239H369.406L415.215 -114.029Z" fill="#4764D0"/>
<path d="M462.181 -18.9239C462.181 7.74417 483.17 29.035 508.668 29.035V75.8248C457.46 75.8248 416.269 33.222 416.269 -18.9239H462.181Z" fill="#4764D0"/>
<path d="M555.155 734.361C555.155 707.693 534.165 686.402 508.668 686.402V639.613C559.876 639.613 601.067 682.215 601.067 734.361H555.155Z" fill="#4764D0"/>
<path d="M601.067 734.361C601.067 682.215 642.101 639.613 693.114 639.613V686.402C667.714 686.402 646.804 707.693 646.804 734.361H601.067Z" fill="#4764D0"/>
<path d="M555.18 639.613H601.418L555.18 544.508H509.371L555.18 639.613Z" fill="#4764D0"/>
<path d="M602.121 639.613H647.93L694.168 544.508H647.93L602.121 639.613Z" fill="#4764D0"/>
<path d="M555.155 78.7394C555.155 52.0714 534.165 30.7806 508.668 30.7806V-16.0093C559.876 -16.0093 601.067 26.5936 601.067 78.7394H555.155Z" fill="#4764D0"/>
<path d="M601.067 78.7394C601.067 26.5936 642.101 -16.0092 693.114 -16.0093V30.7806C667.714 30.7806 646.804 52.0714 646.804 78.7394H601.067Z" fill="#4764D0"/>
<path d="M555.18 -16.0093H601.418L555.18 -111.114L509.371 -111.114L555.18 -16.0093Z" fill="#4764D0"/>
<path d="M602.121 -16.0093H647.93L694.168 -111.114H647.93L602.121 -16.0093Z" fill="#4764D0"/>
<path d="M647.681 -490.821C647.681 -464.153 668.671 -442.862 694.168 -442.862V-396.073C642.96 -396.073 601.769 -438.675 601.769 -490.821L647.681 -490.821Z" fill="#4764D0"/>
<path d="M601.769 -490.821C601.769 -438.675 560.735 -396.073 509.722 -396.073V-442.862C535.122 -442.862 556.032 -464.153 556.032 -490.821L601.769 -490.821Z" fill="#4764D0"/>
<path d="M647.656 -396.073H601.418L647.656 -300.968H693.465L647.656 -396.073Z" fill="#4764D0"/>
<path d="M600.715 -396.073H554.906L508.668 -300.968H554.906L600.715 -396.073Z" fill="#4764D0"/>
<path d="M647.681 -300.968C647.681 -274.3 668.671 -253.009 694.168 -253.009V-206.219C642.96 -206.219 601.769 -248.822 601.769 -300.968H647.681Z" fill="#4764D0"/>
<path d="M601.769 -300.968C601.769 -248.822 560.735 -206.219 509.722 -206.219V-253.009C535.122 -253.009 556.032 -274.3 556.032 -300.968L601.769 -300.968Z" fill="#4764D0"/>
<path d="M647.656 -206.219H601.418L647.656 -111.114H693.465L647.656 -206.219Z" fill="#4764D0"/>
<path d="M600.715 -206.219H554.906L508.668 -111.114L554.906 -111.114L600.715 -206.219Z" fill="#4764D0"/>
<path d="M-1.34523 1026.18C-1.34523 999.511 -22.3345 978.22 -47.832 978.22L-47.832 931.43C3.37587 931.43 44.5667 974.033 44.5667 1026.18H-1.34523Z" fill="#6984CD"/>
<path d="M44.5667 1026.18C44.5667 974.033 85.6006 931.43 136.614 931.43V978.22C111.214 978.22 90.3038 999.511 90.3038 1026.18H44.5667Z" fill="#6984CD"/>
<path d="M-1.31983 931.43H44.918L-1.31983 836.325H-47.1293L-1.31983 931.43Z" fill="#6984CD"/>
<path d="M45.6206 931.43H91.4303L137.668 836.325H91.4303L45.6206 931.43Z" fill="#6984CD"/>
<path d="M-1.34523 836.325C-1.34523 809.657 -22.3345 788.366 -47.832 788.366L-47.832 741.577C3.37587 741.577 44.5667 784.179 44.5667 836.325H-1.34523Z" fill="#6984CD"/>
<path d="M44.5667 836.325C44.5667 784.179 85.6006 741.577 136.614 741.577V788.366C111.214 788.366 90.3038 809.657 90.3038 836.325H44.5667Z" fill="#6984CD"/>
<path d="M-1.31983 741.577H44.918L-1.31984 646.472H-47.1294L-1.31983 741.577Z" fill="#6984CD"/>
<path d="M45.6206 741.577H91.4302L137.668 646.472H91.4302L45.6206 741.577Z" fill="#6984CD"/>
<path d="M91.1558 553.39H44.918L91.1558 646.472H136.965L91.1558 553.39Z" fill="#6984CD"/>
<path d="M44.2154 553.39H-1.59425L-47.832 646.472H-1.59425L44.2154 553.39Z" fill="#6984CD"/>
<path d="M184.155 746.927C184.155 720.259 163.165 698.969 137.668 698.969V652.179C188.876 652.179 230.067 694.782 230.067 746.927H184.155Z" fill="#6984CD"/>
<path d="M230.067 746.927C230.067 694.782 271.101 652.179 322.114 652.179V698.969C296.714 698.969 275.804 720.259 275.804 746.927H230.067Z" fill="#6984CD"/>
<path d="M184.18 652.179H230.418L184.18 557.074H138.371L184.18 652.179Z" fill="#6984CD"/>
<path d="M231.121 652.179H276.93L323.168 557.074H276.93L231.121 652.179Z" fill="#6984CD"/>
<path d="M184.155 557.074C184.155 530.406 163.165 509.115 137.668 509.115V462.325C188.876 462.325 230.067 504.928 230.067 557.074H184.155Z" fill="#6984CD"/>
<path d="M230.067 557.074C230.067 504.928 271.101 462.325 322.114 462.325V509.115C296.714 509.115 275.804 530.406 275.804 557.074H230.067Z" fill="#6984CD"/>
<path d="M276.681 -478.255C276.681 -451.587 297.67 -430.296 323.168 -430.296L323.168 -383.506C271.96 -383.506 230.769 -426.109 230.769 -478.255L276.681 -478.255Z" fill="#6984CD"/>
<path d="M230.769 -478.255C230.769 -426.109 189.735 -383.506 138.722 -383.506V-430.296C164.122 -430.296 185.032 -451.587 185.032 -478.255L230.769 -478.255Z" fill="#6984CD"/>
<path d="M276.656 -383.506H230.418L276.656 -288.401H322.465L276.656 -383.506Z" fill="#6984CD"/>
<path d="M229.715 -383.506H183.906L137.668 -288.401H183.906L229.715 -383.506Z" fill="#6984CD"/>
<path d="M369.655 1016.41C369.655 989.737 348.665 968.446 323.168 968.446V921.656C374.376 921.656 415.567 964.259 415.567 1016.41H369.655Z" fill="#6984CD"/>
<path d="M415.567 1016.41C415.567 964.259 456.601 921.656 507.614 921.656V968.446C482.214 968.446 461.304 989.737 461.304 1016.41H415.567Z" fill="#6984CD"/>
<path d="M369.68 921.656H415.918L369.68 826.552H323.871L369.68 921.656Z" fill="#6984CD"/>
<path d="M416.621 921.656L462.43 921.656L508.668 826.552H462.43L416.621 921.656Z" fill="#6984CD"/>
<path d="M369.655 826.552C369.655 799.883 348.665 778.593 323.168 778.593V731.803C374.376 731.803 415.567 774.406 415.567 826.552H369.655Z" fill="#6984CD"/>
<path d="M415.567 826.552C415.567 774.406 456.601 731.803 507.614 731.803V778.593C482.214 778.593 461.304 799.883 461.304 826.552H415.567Z" fill="#6984CD"/>
<path d="M369.68 731.803H415.918L369.68 636.698H323.871L369.68 731.803Z" fill="#6984CD"/>
<path d="M416.621 731.803H462.43L508.668 636.698H462.43L416.621 731.803Z" fill="#6984CD"/>
<path d="M462.156 543.617H415.918L462.156 636.698H507.965L462.156 543.617Z" fill="#6984CD"/>
<path d="M415.215 543.617H369.406L323.168 636.698H369.406L415.215 543.617Z" fill="#6984CD"/>
<path d="M555.155 734.361C555.155 707.693 534.165 686.402 508.668 686.402V639.613C559.876 639.613 601.067 682.215 601.067 734.361H555.155Z" fill="#6984CD"/>
<path d="M601.067 734.361C601.067 682.215 642.101 639.613 693.114 639.613V686.402C667.714 686.402 646.804 707.693 646.804 734.361H601.067Z" fill="#6984CD"/>
<path d="M555.18 639.613H601.418L555.18 544.508H509.371L555.18 639.613Z" fill="#6984CD"/>
<path d="M602.121 639.613H647.93L694.168 544.508H647.93L602.121 639.613Z" fill="#6984CD"/>
<path d="M555.155 544.508C555.155 517.84 534.165 496.549 508.668 496.549V449.759C559.876 449.759 601.067 492.362 601.067 544.508H555.155Z" fill="#6984CD"/>
<path d="M601.067 544.508C601.067 492.362 642.101 449.759 693.114 449.759V496.549C667.714 496.549 646.804 517.84 646.804 544.508H601.067Z" fill="#6984CD"/>
<path d="M555.18 449.759H601.418L555.18 354.654H509.371L555.18 449.759Z" fill="#6984CD"/>
<path d="M602.121 449.759H647.93L694.168 354.654H647.93L602.121 449.759Z" fill="#6984CD"/>
<path d="M647.681 173.404C647.681 199.505 668.671 220.342 694.168 220.342V266.137C642.96 266.137 601.769 224.44 601.769 173.404H647.681Z" fill="#6984CD"/>
<path d="M647.656 261.573H601.418L647.656 354.654H693.465L647.656 261.573Z" fill="#6984CD"/>
<path d="M601.067 173.404C601.067 121.258 642.101 78.6552 693.114 78.6552V125.445C667.714 125.445 646.804 146.736 646.804 173.404H601.067Z" fill="#6984CD"/>
<path d="M647.681 -490.821C647.681 -464.153 668.671 -442.862 694.168 -442.862V-396.073C642.96 -396.073 601.769 -438.675 601.769 -490.821L647.681 -490.821Z" fill="#6984CD"/>
<path d="M601.769 -490.821C601.769 -438.675 560.735 -396.073 509.722 -396.073V-442.862C535.122 -442.862 556.032 -464.153 556.032 -490.821L601.769 -490.821Z" fill="#6984CD"/>
<path d="M647.656 -396.073H601.418L647.656 -300.968H693.465L647.656 -396.073Z" fill="#6984CD"/>
<path d="M600.715 -396.073H554.906L508.668 -300.968H554.906L600.715 -396.073Z" fill="#6984CD"/>
<path d="M-1.34523 1026.18C-1.34523 999.511 -22.3345 978.22 -47.832 978.22L-47.832 931.43C3.37587 931.43 44.5667 974.033 44.5667 1026.18H-1.34523Z" fill="#6A89E5"/>
<path d="M44.5667 1026.18C44.5667 974.033 85.6006 931.43 136.614 931.43V978.22C111.214 978.22 90.3038 999.511 90.3038 1026.18H44.5667Z" fill="#6A89E5"/>
<path d="M-1.31983 931.43H44.918L-1.31983 836.325H-47.1293L-1.31983 931.43Z" fill="#6A89E5"/>
<path d="M45.6206 931.43H91.4303L137.668 836.325H91.4303L45.6206 931.43Z" fill="#6A89E5"/>
<path d="M-1.34523 836.325C-1.34523 809.657 -22.3345 788.366 -47.832 788.366L-47.832 741.577C3.37587 741.577 44.5667 784.179 44.5667 836.325H-1.34523Z" fill="#6A89E5"/>
<path d="M44.5667 836.325C44.5667 784.179 85.6006 741.577 136.614 741.577V788.366C111.214 788.366 90.3038 809.657 90.3038 836.325H44.5667Z" fill="#6A89E5"/>
<path d="M-1.31983 741.577H44.918L-1.31984 646.472H-47.1294L-1.31983 741.577Z" fill="#6A89E5"/>
<path d="M45.6206 741.577H91.4302L137.668 646.472H91.4302L45.6206 741.577Z" fill="#6A89E5"/>
<path d="M91.1812 460.658C91.1812 486.758 112.171 507.596 137.668 507.596L137.668 553.39C86.4601 553.39 45.2693 511.694 45.2693 460.658H91.1812Z" fill="#6A89E5"/>
<path d="M45.2693 460.658C45.2693 511.694 4.2354 553.39 -46.778 553.391L-46.778 507.596C-21.3776 507.596 -0.467796 486.758 -0.4678 460.658H45.2693Z" fill="#6A89E5"/>
<path d="M91.1558 553.39H44.918L91.1558 646.472H136.965L91.1558 553.39Z" fill="#6A89E5"/>
<path d="M44.2154 553.39H-1.59425L-47.832 646.472H-1.59425L44.2154 553.39Z" fill="#6A89E5"/>
<path d="M184.155 746.927C184.155 720.259 163.165 698.969 137.668 698.969V652.179C188.876 652.179 230.067 694.782 230.067 746.927H184.155Z" fill="#001667"/>
<path d="M230.067 746.927C230.067 694.782 271.101 652.179 322.114 652.179V698.969C296.714 698.969 275.804 720.259 275.804 746.927H230.067Z" fill="#6A89E5"/>
<path d="M184.18 652.179H230.418L184.18 557.074H138.371L184.18 652.179Z" fill="#6A89E5"/>
<path d="M231.121 652.179H276.93L323.168 557.074H276.93L231.121 652.179Z" fill="#6A89E5"/>
<path d="M184.155 557.074C184.155 530.406 163.165 509.115 137.668 509.115V462.325C188.876 462.325 230.067 504.928 230.067 557.074H184.155Z" fill="#6A89E5"/>
<path d="M276.681 -478.255C276.681 -451.587 297.67 -430.296 323.168 -430.296L323.168 -383.506C271.96 -383.506 230.769 -426.109 230.769 -478.255L276.681 -478.255Z" fill="#001667"/>
<path d="M230.769 -478.255C230.769 -426.109 189.735 -383.506 138.722 -383.506V-430.296C164.122 -430.296 185.032 -451.587 185.032 -478.255L230.769 -478.255Z" fill="#6A89E5"/>
<path d="M369.655 1016.41C369.655 989.737 348.665 968.446 323.168 968.446V921.656C374.376 921.656 415.567 964.259 415.567 1016.41H369.655Z" fill="#001667"/>
<path d="M415.567 1016.41C415.567 964.259 456.601 921.656 507.614 921.656V968.446C482.214 968.446 461.304 989.737 461.304 1016.41H415.567Z" fill="#6A89E5"/>
<path d="M369.68 921.656H415.918L369.68 826.552H323.871L369.68 921.656Z" fill="#6A89E5"/>
<path d="M416.621 921.656L462.43 921.656L508.668 826.552H462.43L416.621 921.656Z" fill="#6A89E5"/>
<path d="M369.655 826.552C369.655 799.883 348.665 778.593 323.168 778.593V731.803C374.376 731.803 415.567 774.406 415.567 826.552H369.655Z" fill="#6A89E5"/>
<path d="M415.567 826.552C415.567 774.406 456.601 731.803 507.614 731.803V778.593C482.214 778.593 461.304 799.883 461.304 826.552H415.567Z" fill="#6A89E5"/>
<path d="M369.68 731.803H415.918L369.68 636.698H323.871L369.68 731.803Z" fill="#6A89E5"/>
<path d="M601.067 734.361C601.067 682.215 642.101 639.613 693.114 639.613V686.402C667.714 686.402 646.804 707.693 646.804 734.361H601.067Z" fill="#6A89E5"/>
<path d="M555.155 78.7394C555.155 52.0714 534.165 30.7806 508.668 30.7806V-16.0093C559.876 -16.0093 601.067 26.5936 601.067 78.7394H555.155Z" fill="#6A89E5"/>
<path d="M601.067 78.7394C601.067 26.5936 642.101 -16.0092 693.114 -16.0093V30.7806C667.714 30.7806 646.804 52.0714 646.804 78.7394H601.067Z" fill="#6A89E5"/>
<path d="M555.18 -16.0093H601.418L555.18 -111.114L509.371 -111.114L555.18 -16.0093Z" fill="#6A89E5"/>
<path d="M602.121 -16.0093H647.93L694.168 -111.114H647.93L602.121 -16.0093Z" fill="#6A89E5"/>
<path d="M647.681 -490.821C647.681 -464.153 668.671 -442.862 694.168 -442.862V-396.073C642.96 -396.073 601.769 -438.675 601.769 -490.821L647.681 -490.821Z" fill="#6A89E5"/>
<path d="M601.769 -490.821C601.769 -438.675 560.735 -396.073 509.722 -396.073V-442.862C535.122 -442.862 556.032 -464.153 556.032 -490.821L601.769 -490.821Z" fill="#6A89E5"/>
<path d="M647.656 -396.073H601.418L647.656 -300.968H693.465L647.656 -396.073Z" fill="#6A89E5"/>
<path d="M600.715 -396.073H554.906L508.668 -300.968H554.906L600.715 -396.073Z" fill="#6A89E5"/>
<path d="M647.681 -300.968C647.681 -274.3 668.671 -253.009 694.168 -253.009V-206.219C642.96 -206.219 601.769 -248.822 601.769 -300.968H647.681Z" fill="#6A89E5"/>
<path d="M601.769 -300.968C601.769 -248.822 560.735 -206.219 509.722 -206.219V-253.009C535.122 -253.009 556.032 -274.3 556.032 -300.968L601.769 -300.968Z" fill="#6A89E5"/>
<path d="M647.656 -206.219H601.418L647.656 -111.114H693.465L647.656 -206.219Z" fill="#6A89E5"/>
<path d="M600.715 -206.219H554.906L508.668 -111.114L554.906 -111.114L600.715 -206.219Z" fill="#6A89E5"/>
<path d="M-1.34523 1026.18C-1.34523 999.511 -22.3345 978.22 -47.832 978.22L-47.832 931.43C3.37587 931.43 44.5667 974.033 44.5667 1026.18H-1.34523Z" fill="#6A89E5"/>
<path d="M44.5667 1026.18C44.5667 974.033 85.6006 931.43 136.614 931.43V978.22C111.214 978.22 90.3038 999.511 90.3038 1026.18H44.5667Z" fill="#6A89E5"/>
<path d="M-1.31983 931.43H44.918L-1.31983 836.325H-47.1293L-1.31983 931.43Z" fill="#6A89E5"/>
<path d="M45.6206 931.43H91.4303L137.668 836.325H91.4303L45.6206 931.43Z" fill="#6A89E5"/>
<path d="M91.1812 -199.004C91.1812 -172.336 112.17 -151.045 137.668 -151.045L137.668 -104.255C86.4601 -104.255 45.2693 -146.858 45.2693 -199.004H91.1812Z" fill="#6A89E5"/>
<path d="M45.2693 -199.004C45.2693 -146.858 4.23534 -104.255 -46.7781 -104.255L-46.7781 -151.045C-21.3776 -151.045 -0.467857 -172.336 -0.467861 -199.004H45.2693Z" fill="#6A89E5"/>
<path d="M91.1558 -104.255H44.9179L91.1558 -9.15009H136.965L91.1558 -104.255Z" fill="#6A89E5"/>
<path d="M44.2153 -104.255H-1.59431L-47.832 -9.15009H-1.5943L44.2153 -104.255Z" fill="#6A89E5"/>
<path d="M230.769 -478.255C230.769 -426.109 189.735 -383.506 138.722 -383.506V-430.296C164.122 -430.296 185.032 -451.587 185.032 -478.255L230.769 -478.255Z" fill="#6A89E5"/>
<path d="M369.655 1016.41C369.655 989.737 348.665 968.446 323.168 968.446V921.656C374.376 921.656 415.567 964.259 415.567 1016.41H369.655Z" fill="#6A89E5"/>
<path d="M415.567 1016.41C415.567 964.259 456.601 921.656 507.614 921.656V968.446C482.214 968.446 461.304 989.737 461.304 1016.41H415.567Z" fill="#6A89E5"/>
<path d="M369.68 921.656H415.918L369.68 826.552H323.871L369.68 921.656Z" fill="#6A89E5"/>
<path d="M416.621 921.656L462.43 921.656L508.668 826.552H462.43L416.621 921.656Z" fill="#6A89E5"/>
<path d="M415.567 826.552C415.567 774.406 456.601 731.803 507.614 731.803V778.593C482.214 778.593 461.304 799.883 461.304 826.552H415.567Z" fill="#6A89E5"/>
<path d="M555.155 734.361C555.155 707.693 534.165 686.402 508.668 686.402V639.613C559.876 639.613 601.067 682.215 601.067 734.361H555.155Z" fill="#6A89E5"/>
<path d="M601.067 734.361C601.067 682.215 642.101 639.613 693.114 639.613V686.402C667.714 686.402 646.804 707.693 646.804 734.361H601.067Z" fill="#6A89E5"/>
<path d="M555.18 639.613H601.418L555.18 544.508H509.371L555.18 639.613Z" fill="#6A89E5"/>
<path d="M602.121 639.613H647.93L694.168 544.508H647.93L602.121 639.613Z" fill="#6A89E5"/>
<path d="M647.681 -490.821C647.681 -464.153 668.671 -442.862 694.168 -442.862V-396.073C642.96 -396.073 601.769 -438.675 601.769 -490.821L647.681 -490.821Z" fill="#6A89E5"/>
</g>
</svg>
