<svg width="536" height="34" viewBox="0 0 536 34" fill="none" xmlns="http://www.w3.org/2000/svg">
<path d="M8.53203 0.503998H12.672V28.224H8.53203V5.112C6.94803 7.524 4.32003 9.684 1.29603 9.9L2.93478e-05 6.372C4.89603 6.012 7.45203 4.068 8.53203 0.503998ZM16.8216 28.224V25.164C27.2616 19.368 31.9056 12.816 31.9056 8.208C31.9056 4.896 29.4936 2.7 26.5776 2.7C23.3016 2.7 21.8976 6.3 20.7096 8.46L17.1456 6.588C19.5936 2.412 22.8336 0.0359972 27.1176 -2.38419e-06C32.8776 0.0359972 36.0456 3.816 36.0456 7.992C36.0456 13.248 30.7536 20.376 22.0776 25.164H36.0456V28.224H16.8216ZM54.7608 28.224H51.1608L60.7368 0.503998H65.3808L75.0648 28.224H70.6008L67.6488 19.584H57.6048L54.7608 28.224ZM58.6128 16.524H66.6048L62.5008 4.608L58.6128 16.524ZM96.1709 0.503998L87.8189 21.168C87.1349 22.896 85.7669 28.224 81.5549 28.224C79.1069 28.224 76.4429 26.424 75.0389 23.832L78.5669 22.176C79.3229 24.084 80.2949 25.524 81.4829 25.524C83.2109 25.524 84.2909 22.464 84.7589 20.88L73.2389 0.503998H77.9549L86.5589 16.092L92.8589 0.503998H96.1709ZM99.9605 28.224V0.503998H104.1V12.816L115.224 0.503998H119.544L109.716 11.412L121.38 28.224H116.773L106.944 14.436L104.064 17.64L104.1 28.224H99.9605ZM125.343 28.224V0.503998H129.483V25.164H143.343V0.503998H147.483V25.164H150.363V33.984H146.223V28.224H125.343ZM155.05 28.224V0.503998H159.19V22.176L173.05 0.503998H177.19V28.224H173.05V6.552L159.19 28.224H155.05ZM181.318 14.364C181.318 6.192 187.078 -2.38419e-06 194.674 -2.38419e-06C202.27 -2.38419e-06 207.994 6.156 207.994 14.364C207.994 22.572 202.27 28.728 194.674 28.728C187.078 28.728 181.318 22.536 181.318 14.364ZM185.818 14.364C185.818 21.312 189.382 26.028 194.674 26.028C199.93 26.028 203.494 21.348 203.494 14.364C203.494 7.272 199.858 2.7 194.674 2.7C189.382 2.7 185.818 7.416 185.818 14.364ZM212.144 28.224V0.503998H216.284V12.564H230.504V0.503998H234.644V28.224H230.504V15.624H216.284V28.224H212.144ZM238.798 14.364C238.798 6.192 244.558 -2.38419e-06 252.154 -2.38419e-06C259.75 -2.38419e-06 265.474 6.156 265.474 14.364C265.474 22.572 259.75 28.728 252.154 28.728C244.558 28.728 238.798 22.536 238.798 14.364ZM243.298 14.364C243.298 21.312 246.862 26.028 252.154 26.028C257.41 26.028 260.974 21.348 260.974 14.364C260.974 7.272 257.338 2.7 252.154 2.7C246.862 2.7 243.298 7.416 243.298 14.364ZM269.625 0.503998H278.409C285.177 0.503998 288.597 2.664 288.597 7.128C288.597 10.296 286.941 12.276 284.853 13.32C288.417 14.184 290.757 16.452 290.757 20.556C290.757 25.56 287.445 28.224 281.217 28.224H269.625V0.503998ZM273.765 25.524H279.489C284.349 25.524 286.617 23.94 286.617 20.556C286.617 16.668 284.313 15.084 278.769 15.084H273.765V25.524ZM273.765 12.024H278.049C281.577 12.024 284.457 10.512 284.457 7.236C284.457 3.672 281.577 3.204 276.681 3.204H273.765V12.024ZM306.052 14.364C306.052 6.192 311.812 -2.38419e-06 319.408 -2.38419e-06C327.004 -2.38419e-06 332.728 6.156 332.728 14.364C332.728 22.572 327.004 28.728 319.408 28.728C311.812 28.728 306.052 22.536 306.052 14.364ZM310.552 14.364C310.552 21.312 314.116 26.028 319.408 26.028C324.664 26.028 328.228 21.348 328.228 14.364C328.228 7.272 324.592 2.7 319.408 2.7C314.116 2.7 310.552 7.416 310.552 14.364ZM343.149 28.224V3.564H334.005V0.503998H356.398V3.564H347.289V28.224H343.149ZM360.714 28.224V0.503998H364.854V12.816L375.978 0.503998H380.298L370.47 11.412L382.134 28.224H377.526L367.698 14.436L364.818 17.64L364.854 28.224H360.714ZM386.097 28.224V0.503998H394.449C401.037 0.503998 405.069 3.924 405.069 9.468C405.069 14.976 401.037 18.288 394.449 18.288H390.237V28.224H386.097ZM390.237 15.228H392.721C398.445 15.228 400.929 13.464 400.929 9.468C400.929 5.472 398.265 3.564 392.721 3.564H390.237V15.228ZM416.03 13.86H413.546V25.164H416.03C422.006 25.164 424.598 23.472 424.598 19.512C424.598 15.696 421.826 13.86 416.03 13.86ZM417.758 28.224H409.406V0.503998H413.546V10.8H417.758C424.598 10.8 428.738 14.076 428.738 19.512C428.738 24.876 424.526 28.224 417.758 28.224ZM431.906 28.224V0.503998H436.046V28.224H431.906ZM449.497 28.224V3.564H440.353V0.503998H462.745V3.564H453.637V28.224H449.497ZM464.009 14.364C464.009 6.192 469.769 -2.38419e-06 477.365 -2.38419e-06C484.961 -2.38419e-06 490.685 6.156 490.685 14.364C490.685 22.572 484.961 28.728 477.365 28.728C469.769 28.728 464.009 22.536 464.009 14.364ZM468.509 14.364C468.509 21.312 472.073 26.028 477.365 26.028C482.621 26.028 486.185 21.348 486.185 14.364C486.185 7.272 482.549 2.7 477.365 2.7C472.073 2.7 468.509 7.416 468.509 14.364ZM529.165 20.124C529.525 19.356 529.873 18.684 530.209 18.108C530.569 17.532 530.917 17.052 531.253 16.668H510.265V15.156H531.253C530.917 14.748 530.569 14.256 530.209 13.68C529.873 13.104 529.525 12.444 529.165 11.7H530.425C531.937 13.452 533.521 14.748 535.177 15.588V16.236C533.521 17.052 531.937 18.348 530.425 20.124H529.165Z" fill="black"/>
</svg>
