<svg width="32" height="32" viewBox="0 0 32 32" fill="none" xmlns="http://www.w3.org/2000/svg">
<path d="M6 12.8352C6.00002 11.658 6.33759 10.5086 6.96813 9.53862C7.59867 8.56867 8.49251 7.82386 9.5316 7.40256C10.5707 6.98127 11.7061 6.90331 12.788 7.17898C13.8698 7.45466 14.8472 8.07099 15.591 8.94658C15.6434 9.00584 15.7067 9.05308 15.777 9.08537C15.8474 9.11767 15.9233 9.13433 16 9.13433C16.0767 9.13433 16.1525 9.11767 16.2229 9.08537C16.2932 9.05308 16.3566 9.00584 16.409 8.94658C17.1504 8.0653 18.128 7.44379 19.2116 7.16476C20.2952 6.88574 21.4334 6.96245 22.4748 7.38467C23.5162 7.80689 24.4113 8.5546 25.0411 9.52829C25.6708 10.502 26.0052 11.6555 25.9999 12.8352C25.9999 15.2576 24.4999 17.0665 22.9999 18.6533L17.508 24.2736C17.3216 24.5 17.0919 24.6818 16.834 24.8071C16.5761 24.9323 16.296 24.9981 16.0123 25C15.7285 25.0019 15.4476 24.9399 15.1883 24.8181C14.9289 24.6963 14.697 24.5176 14.508 24.2937L8.99999 18.6533C7.5 17.0665 6 15.2682 6 12.8352Z" stroke="black" stroke-width="1.5" stroke-linecap="round" stroke-linejoin="round"/>
</svg>
