<svg width="32" height="32" viewBox="0 0 32 32" fill="none" xmlns="http://www.w3.org/2000/svg">
<path d="M26.6667 12.875L24.686 22.6237C24.4416 23.8264 24.3195 24.4278 24.0005 24.8776C23.7192 25.2742 23.332 25.5866 22.8817 25.7803C22.3711 26 21.7481 26 20.5021 26H11.4978C10.2519 26 9.62888 26 9.11825 25.7803C8.66796 25.5866 8.2808 25.2742 7.99952 24.8776C7.68055 24.4278 7.55837 23.8264 7.31401 22.6237L5.33333 12.875M4 12.875H28M10.6667 16.8125V16.8256M21.3333 16.8125V16.8256M8 12.875L12 5M24 12.875L20 5" stroke="black" stroke-width="1.5" stroke-linecap="round" stroke-linejoin="round"/>
</svg>
