<svg width="41" height="50" viewBox="0 0 41 50" fill="none" xmlns="http://www.w3.org/2000/svg">
<path d="M40.1875 1.9105e-07H0.8125C0.73041 -6.40203e-05 0.6491 0.0160583 0.57325 0.0474447C0.49739 0.0788312 0.42846 0.124866 0.37042 0.182915C0.31237 0.240965 0.26633 0.30989 0.23494 0.385747C0.20356 0.461605 0.18744 0.542906 0.1875 0.625V49.375C0.18744 49.4571 0.20356 49.5384 0.23494 49.6143C0.26633 49.6901 0.31237 49.759 0.37042 49.8171C0.42846 49.8751 0.49739 49.9212 0.57325 49.9526C0.6491 49.9839 0.73041 50.0001 0.8125 50H40.1875C40.2696 50.0001 40.3509 49.9839 40.4268 49.9526C40.5026 49.9212 40.5715 49.8751 40.6296 49.8171C40.6876 49.759 40.7337 49.6901 40.7651 49.6143C40.7964 49.5384 40.8126 49.4571 40.8125 49.375V0.625C40.8126 0.542906 40.7964 0.461605 40.7651 0.385747C40.7337 0.30989 40.6876 0.240965 40.6296 0.182915C40.5715 0.124866 40.5026 0.0788312 40.4268 0.0474447C40.3509 0.0160583 40.2696 -6.40203e-05 40.1875 1.9105e-07ZM38.6787 1.24939L33.3806 6.54749H7.6194L2.32129 1.24939H38.6787ZM33.015 7.79749V42.2019H7.9856V7.79749H33.015ZM1.4375 2.13379L6.7356 7.43188V42.5687L1.4375 47.8668V2.13379ZM2.32251 48.75L7.6194 43.4519H33.3812L38.6787 48.75H2.32251ZM39.5625 47.8662L34.2644 42.5681V7.43127L39.5625 2.13318V47.8662Z" fill="black"/>
</svg>
