<svg width="51" height="50" viewBox="0 0 51 50" fill="none" xmlns="http://www.w3.org/2000/svg">
<g clip-path="url(#clip0_254_5417)">
<g clip-path="url(#clip1_254_5417)">
<mask id="mask0_254_5417" style="mask-type:luminance" maskUnits="userSpaceOnUse" x="0" y="0" width="51" height="50">
<path d="M50.5 0H0.5V50H50.5V0Z" fill="white"/>
</mask>
<g mask="url(#mask0_254_5417)">
<path d="M21.9141 26.8673C22.0313 26.9845 22.1798 27.0392 22.3282 27.0392C22.4766 27.0392 22.6251 26.9845 22.7423 26.8673L24.9063 24.7032L27.9845 27.7813L27.9688 27.797C27.7173 28.048 27.518 28.3464 27.3826 28.675C27.2472 29.0035 27.1782 29.3557 27.1798 29.711C27.1798 30.4298 27.461 31.1095 27.9688 31.6251C28.2199 31.8766 28.5183 32.0759 28.8468 32.2113C29.1754 32.3468 29.5275 32.4157 29.8829 32.4142C30.6017 32.4142 31.2814 32.1329 31.797 31.6251L41.8439 21.5782C42.0954 21.3272 42.2947 21.0287 42.4301 20.7002C42.5656 20.3716 42.6345 20.0195 42.633 19.6641C42.633 18.9454 42.3517 18.2657 41.8439 17.7501C40.7892 16.6954 39.0704 16.6954 38.0236 17.7501L38.0001 17.7657L24.8516 4.6172L24.8673 4.60158C25.3751 4.09376 25.6563 3.41407 25.6563 2.68751C25.6563 1.96094 25.3829 1.28907 24.8673 0.781253C23.8438 -0.242188 22.0626 -0.242188 21.0469 0.781253L11 10.8282C9.94534 11.8829 9.94534 13.6016 11 14.6485C11.5078 15.1563 12.1875 15.4376 12.9141 15.4376C13.6407 15.4376 14.3125 15.1563 14.8282 14.6485L14.8438 14.6329L17.9219 17.711L15.7579 19.8751C15.6481 19.9849 15.5865 20.1339 15.5865 20.2891C15.5865 20.4444 15.6481 20.5933 15.7579 20.7032L16.6016 21.5469L1.42969 36.7111C0.828126 37.3126 0.5 38.1095 0.5 38.9533C0.5 39.797 0.828126 40.5939 1.42969 41.1954C2.03126 41.797 2.82032 42.1251 3.67189 42.1251C4.52345 42.1251 5.31252 41.797 5.91408 41.1954L21.0782 26.0313L21.9141 26.8673ZM39.9298 18.1329C40.3204 18.1329 40.7111 18.2813 41.0158 18.5782C41.6095 19.1719 41.6095 20.1485 41.0158 20.7423L30.961 30.797C30.3829 31.3751 29.3751 31.3751 28.797 30.797C28.2032 30.2032 28.2032 29.2267 28.797 28.6329L29.2267 28.2032L38.8439 18.586C39.1486 18.2813 39.5392 18.1329 39.9298 18.1329ZM11.8282 13.8204C11.2344 13.2266 11.2344 12.25 11.8282 11.6563L21.8751 1.60938C22.1719 1.3125 22.5626 1.16407 22.961 1.16407C23.3516 1.16407 23.7423 1.3125 24.047 1.60938C24.6407 2.20313 24.6407 3.1797 24.047 3.77345L23.6173 4.20314L13.9922 13.8204C13.3985 14.4219 12.4219 14.4219 11.8282 13.8204ZM24.0235 5.44533L37.172 18.5938L28.8126 26.9532L25.3204 23.461C25.3204 23.461 25.3204 23.4532 25.3126 23.4532C25.3048 23.4532 25.3048 23.4532 25.3048 23.4454L19.1563 17.2969V17.2891H19.1485L15.6563 13.7969L24.0235 5.44533ZM18.7422 18.5469L24.0704 23.8751L22.3204 25.6251L16.9922 20.2969L18.7422 18.5469ZM5.07814 40.3673C4.32814 41.1173 3.00782 41.1173 2.25782 40.3673C2.07196 40.1817 1.92451 39.9613 1.82391 39.7187C1.72331 39.476 1.67153 39.2159 1.67153 38.9533C1.67153 38.6906 1.72331 38.4305 1.82391 38.1879C1.92451 37.9452 2.07196 37.7248 2.25782 37.5392L17.4219 22.3751L20.2423 25.1954L5.07814 40.3673ZM46.758 43.4533H44.5861V41.8361C44.5861 39.7736 42.9064 38.0939 40.8517 38.0939H20.8985C18.836 38.0939 17.1563 39.7736 17.1563 41.8361V43.4533H14.9844C12.9219 43.4533 11.25 45.133 11.25 47.1955V49.3986C11.25 49.7189 11.5157 49.9845 11.836 49.9845H49.9142C50.2345 49.9845 50.5002 49.7189 50.5002 49.3986V47.1955C50.5002 45.133 48.8205 43.4533 46.758 43.4533ZM18.336 41.8361C18.336 40.422 19.4844 39.2658 20.9063 39.2658H40.8595C42.2736 39.2658 43.422 40.4142 43.422 41.8361V43.4533H18.336V41.8361ZM49.3283 48.8127H12.4219V47.1955C12.4219 46.5151 12.6916 45.8625 13.172 45.3807C13.6523 44.8989 14.3041 44.6272 14.9844 44.6251H46.758C48.172 44.6251 49.3283 45.7736 49.3283 47.1955V48.8127Z" fill="black"/>
</g>
</g>
</g>
<defs>
<clipPath id="clip0_254_5417">
<rect width="50" height="50" fill="white" transform="translate(0.5)"/>
</clipPath>
<clipPath id="clip1_254_5417">
<rect width="50" height="50" fill="white" transform="translate(0.5)"/>
</clipPath>
</defs>
</svg>
