<svg width="50" height="50" viewBox="0 0 50 50" fill="none" xmlns="http://www.w3.org/2000/svg">
<g clip-path="url(#clip0_254_5429)">
<g clip-path="url(#clip1_254_5429)">
<mask id="mask0_254_5429" style="mask-type:luminance" maskUnits="userSpaceOnUse" x="0" y="0" width="50" height="50">
<path d="M50 0H0V50H50V0Z" fill="white"/>
</mask>
<g mask="url(#mask0_254_5429)">
<path d="M0.611771 37.5622C0.713083 37.5622 0.812879 37.5376 0.902482 37.4903C3.20817 36.2755 5.47885 34.5206 7.66575 32.2806V48.7568H0.726179C0.56037 48.7568 0.401351 48.8226 0.284106 48.9399C0.166861 49.0571 0.100993 49.2161 0.100993 49.3819C0.100993 49.5478 0.166861 49.7068 0.284106 49.824C0.401351 49.9413 0.56037 50.0071 0.726179 50.0071H49.3757C49.5415 50.0071 49.7005 49.9413 49.8177 49.824C49.935 49.7068 50.0009 49.5478 50.0009 49.3819C50.0009 49.2161 49.935 49.0571 49.8177 48.9399C49.7005 48.8226 49.5415 48.7568 49.3757 48.7568H42.2623V32.3C44.4423 34.5306 46.7074 36.2787 49.0068 37.4903C49.1536 37.5675 49.325 37.5834 49.4834 37.5342C49.5618 37.5099 49.6347 37.4704 49.6978 37.4179C49.761 37.3654 49.8132 37.301 49.8514 37.2283C49.8897 37.1557 49.9133 37.0762 49.9208 36.9944C49.9284 36.9126 49.9197 36.8302 49.8954 36.7518C49.8711 36.6733 49.8315 36.6005 49.779 36.5373C49.7266 36.4742 49.6621 36.422 49.5895 36.3837C47.3269 35.1921 45.0906 33.4441 42.9338 31.1947C43.9753 30.7033 44.703 29.6498 44.703 28.4219C44.703 26.7277 43.3276 25.3498 41.6371 25.3498C39.9466 25.3498 38.5712 26.7277 38.5712 28.4219C38.5722 29.0135 38.744 29.5923 39.0659 30.0886C39.3879 30.5849 39.8463 30.9776 40.3861 31.2197C39.0476 32.5994 33.1365 38.203 25.2529 38.4349C19.7969 38.5956 14.4953 36.1718 9.49317 31.2459C10.0457 31.0088 10.5167 30.615 10.8478 30.1131C11.1789 29.6112 11.3557 29.0232 11.3562 28.4219C11.3562 26.7277 9.98081 25.3498 8.29093 25.3498C6.60105 25.3498 5.22439 26.7277 5.22439 28.4219C5.22439 29.6448 5.94711 30.6945 6.98179 31.1884C4.8224 33.4403 2.58361 35.1915 0.320434 36.3837C0.196755 36.4488 0.0984419 36.5534 0.0411931 36.6809C-0.0160556 36.8084 -0.0289395 36.9514 0.00459927 37.087C0.0381381 37.2227 0.116165 37.3432 0.226222 37.4293C0.336279 37.5155 0.47202 37.5622 0.611771 37.5622ZM39.8216 28.4219C39.8214 27.9398 40.0124 27.4773 40.3528 27.1358C40.6931 26.7943 41.155 26.6016 41.6371 26.6002C42.638 26.6002 43.4527 27.4173 43.4527 28.4219C43.4527 29.4266 42.638 30.2431 41.6371 30.2431C41.155 30.2418 40.6932 30.0493 40.3528 29.7079C40.0125 29.3665 39.8214 28.904 39.8216 28.4219ZM25.3029 39.6847C33.2765 39.4452 39.1676 34.2249 41.0126 32.3725V48.7568H8.91675V32.4313C13.9182 37.2483 19.2348 39.6928 24.7408 39.6928C24.9278 39.6928 25.1153 39.6903 25.3029 39.6847ZM8.29156 26.5995C9.29186 26.5995 10.1065 27.4173 10.1065 28.4219C10.1065 29.4266 9.29186 30.2431 8.29156 30.2431C7.29001 30.2431 6.47539 29.426 6.47539 28.4219C6.47539 27.4179 7.29001 26.5995 8.29156 26.5995ZM33.8673 23.4117C34.0331 23.4117 34.1921 23.3458 34.3094 23.2286C34.4266 23.1114 34.4925 22.9523 34.4925 22.7865V0.617374C34.4925 0.451564 34.4266 0.292546 34.3094 0.175301C34.1921 0.0580553 34.0331 -0.0078125 33.8673 -0.0078125H16.2352C16.0694 -0.0078125 15.9103 0.0580553 15.7931 0.175301C15.6759 0.292546 15.61 0.451564 15.61 0.617374V22.7865C15.61 22.9523 15.6759 23.1114 15.7931 23.2286C15.9103 23.3458 16.0694 23.4117 16.2352 23.4117H33.8673ZM16.8604 1.24256H33.2421V22.1613H16.8604V1.24256Z" fill="black"/>
<path d="M30.2972 3.625H19.8041C19.6383 3.625 19.4793 3.69086 19.362 3.80811C19.2448 3.92535 19.1789 4.08437 19.1789 4.25018V19.1527C19.1789 19.3185 19.2448 19.4776 19.362 19.5948C19.4793 19.712 19.6383 19.7779 19.8041 19.7779H30.2972C30.463 19.7779 30.6221 19.712 30.7393 19.5948C30.8566 19.4776 30.9224 19.3185 30.9224 19.1527V4.25018C30.9224 4.08437 30.8566 3.92535 30.7393 3.80811C30.6221 3.69086 30.463 3.625 30.2972 3.625ZM29.672 18.5275H20.4293V4.87537H29.672V18.5275ZM49.3379 19.6297C49.5037 19.6297 49.6627 19.5639 49.78 19.4466C49.8972 19.3294 49.9631 19.1704 49.9631 19.0046V4.39898C49.9631 4.23317 49.8972 4.07415 49.78 3.9569C49.6627 3.83966 49.5037 3.77379 49.3379 3.77379H37.7213C37.5555 3.77379 37.3965 3.83966 37.2792 3.9569C37.162 4.07415 37.0961 4.23317 37.0961 4.39898V19.0046C37.0961 19.1704 37.162 19.3294 37.2792 19.4466C37.3965 19.5639 37.5555 19.6297 37.7213 19.6297H49.3379ZM38.3465 5.02416H48.7121V18.3794H38.3465V5.02416ZM0.610889 19.6297H12.2275C12.3933 19.6297 12.5523 19.5639 12.6695 19.4466C12.7868 19.3294 12.8527 19.1704 12.8527 19.0046V4.39898C12.8527 4.23317 12.7868 4.07415 12.6695 3.9569C12.5523 3.83966 12.3933 3.77379 12.2275 3.77379H0.611514C0.445705 3.77379 0.286686 3.83966 0.169441 3.9569C0.0521959 4.07415 -0.0136719 4.23317 -0.0136719 4.39898V19.0046C-0.0136719 19.1704 0.0521959 19.3294 0.169441 19.4466C0.286686 19.5639 0.44508 19.6297 0.610889 19.6297ZM1.23608 5.02416H11.6023V18.3794H1.2367L1.23608 5.02416Z" fill="black"/>
<path d="M8.89633 7.26562H3.75605C3.59024 7.26562 3.43122 7.33149 3.31397 7.44873C3.19673 7.56598 3.13086 7.725 3.13086 7.89081V15.5138C3.13086 15.6796 3.19673 15.8386 3.31397 15.9558C3.43122 16.0731 3.59024 16.1389 3.75605 16.1389H8.89633C9.06214 16.1389 9.22115 16.0731 9.3384 15.9558C9.45565 15.8386 9.52151 15.6796 9.52151 15.5138V7.89081C9.52151 7.725 9.45565 7.56598 9.3384 7.44873C9.22115 7.33149 9.06214 7.26562 8.89633 7.26562ZM8.27114 14.8886H4.38123V8.516H8.27114V14.8886ZM46.0993 7.26562H40.9584C40.7926 7.26562 40.6335 7.33149 40.5163 7.44873C40.3991 7.56598 40.3332 7.725 40.3332 7.89081V15.5138C40.3332 15.6796 40.3991 15.8386 40.5163 15.9558C40.6335 16.0731 40.7926 16.1389 40.9584 16.1389H46.0993C46.2651 16.1389 46.4241 16.0731 46.5414 15.9558C46.6586 15.8386 46.7245 15.6796 46.7245 15.5138V7.89081C46.7245 7.725 46.6586 7.56598 46.5414 7.44873C46.4241 7.33149 46.2651 7.26562 46.0993 7.26562ZM45.4741 14.8886H41.5836V8.516H45.4741V14.8886Z" fill="black"/>
</g>
</g>
</g>
<defs>
<clipPath id="clip0_254_5429">
<rect width="50" height="50" fill="white"/>
</clipPath>
<clipPath id="clip1_254_5429">
<rect width="50" height="50" fill="white"/>
</clipPath>
</defs>
</svg>
