<svg width="51" height="50" viewBox="0 0 51 50" fill="none" xmlns="http://www.w3.org/2000/svg">
<g clip-path="url(#clip0_254_5443)">
<g clip-path="url(#clip1_254_5443)">
<path d="M42.1267 27.3738L43.0665 27.3291C43.3089 27.3179 43.5375 27.2129 43.7038 27.0361L44.6904 25.9915C44.8221 25.8515 44.9077 25.6745 44.9358 25.4843C44.9638 25.2942 44.933 25.1 44.8474 24.9279L44.1571 23.5617L45.6897 22.6186C45.8872 22.4972 46.0327 22.3069 46.098 22.0845L46.7186 19.9745C46.7833 19.7543 46.765 19.518 46.6672 19.3104C46.5695 19.1028 46.3991 18.9381 46.1882 18.8476L45.2574 18.4547L45.3813 17.734L46.4455 17.2859C46.5709 17.2333 46.6834 17.1539 46.775 17.0534C46.8666 16.9529 46.9353 16.8336 46.9761 16.7038L47.126 16.2296L48.3508 17.6772C48.438 17.7812 48.547 17.8648 48.6699 17.9223C48.7929 17.9798 48.9269 18.0098 49.0627 18.0101C49.5823 18.0101 50.005 17.5889 50.005 17.0711L50.0049 15.4179L49.9668 13.6285C49.9415 12.4377 48.9534 11.469 47.7641 11.469C47.6758 11.469 47.5864 11.4743 47.4983 11.4849L38.35 12.5827L38.4127 12.4123C38.4637 12.2733 38.4811 12.1243 38.4637 11.9773C38.4462 11.8303 38.3942 11.6895 38.312 11.5663C38.2295 11.4434 38.1192 11.3417 37.99 11.2695C37.8608 11.1972 37.7164 11.1565 37.5685 11.1506L36.405 11.1058C36.2535 11.1006 36.1029 11.1319 35.966 11.1971C35.8291 11.2623 35.7099 11.3594 35.6184 11.4803L32.7616 15.2907L30.2423 16.5537L28.1655 15.4837C28.0326 15.4155 27.8855 15.3798 27.7361 15.3796C27.4778 15.3796 27.2281 15.4877 27.0516 15.6761L25.1257 17.7304C25.0061 17.8571 24.9244 18.0147 24.8898 18.1854C24.8552 18.3561 24.869 18.5331 24.9298 18.6964L25.2775 19.6278L24.0447 20.7959L22.8696 21.4763C22.7063 21.5701 22.5751 21.7112 22.4934 21.8809C22.4117 22.0507 22.3834 22.2412 22.4121 22.4274L22.5103 23.0818C22.5785 23.5374 22.9775 23.8812 23.4381 23.881C23.5708 23.8811 23.702 23.8528 23.8229 23.7981L24.8274 23.346L26.0801 22.8151L27.3632 23.7132C27.4709 23.789 27.5937 23.8411 27.7231 23.8658L29.6846 24.2397V24.7246L25.6258 24.1158C25.4624 24.091 25.2954 24.11 25.1417 24.1708L22.495 25.2156C22.3523 25.2718 22.2256 25.3623 22.126 25.4789C22.0264 25.5956 21.9569 25.735 21.9238 25.8847L21.4063 28.2135C21.3704 28.3757 21.3781 28.5446 21.4287 28.7028C21.4793 28.8611 21.5711 29.003 21.6945 29.1142L22.9143 30.2123C23.0118 30.2998 23.1265 30.366 23.251 30.4066C23.3756 30.4472 23.5072 30.4613 23.6376 30.4481L25.9928 30.1989L26.0606 33.7241C26.0623 33.8103 26.0758 33.8958 26.1008 33.9783L26.5304 35.396C26.7941 36.2664 27.5824 36.8512 28.492 36.8512C29.2587 36.8512 29.9552 36.4289 30.3096 35.749L33.5635 29.5068C33.6576 29.3251 33.69 29.1177 33.6557 28.9159C33.6213 28.7142 33.5222 28.5291 33.3732 28.3887L32.9492 27.9913L33.6089 27.7715C33.7609 27.7213 33.8974 27.633 34.0053 27.5149C34.1133 27.3967 34.189 27.2528 34.2252 27.097C34.2625 26.9414 34.2591 26.7788 34.2154 26.6249C34.1717 26.471 34.0891 26.331 33.9755 26.2182L33.0072 25.2593L33.0715 25.178L35.0981 26.4848L36.7306 28.8429C36.8168 28.9675 36.932 29.0694 37.0662 29.1398C37.2004 29.2102 37.3497 29.247 37.5012 29.247C37.6737 29.2475 37.8429 29.2002 37.9902 29.1105C38.1375 29.0208 38.2571 28.892 38.3358 28.7386L39.0634 27.3085L40.6967 28.469C40.8546 28.5823 41.044 28.6435 41.2384 28.6438C41.3762 28.6437 41.5123 28.6133 41.6371 28.5549C41.7619 28.4965 41.8723 28.4115 41.9607 28.3058C42.0483 28.2013 42.1119 28.079 42.1471 27.9473C42.1822 27.8156 42.1881 27.6778 42.1643 27.5436L42.1267 27.3738ZM29.4714 35.3116C29.3783 35.491 29.2377 35.6413 29.0649 35.7461C28.8921 35.8508 28.6938 35.906 28.4918 35.9056C28.2545 35.9066 28.0232 35.8308 27.8327 35.6894C27.6421 35.548 27.5024 35.3487 27.4346 35.1213L27.0054 33.7056L26.9376 30.1802C26.935 30.0505 26.9056 29.9228 26.8512 29.805C26.7968 29.6872 26.7186 29.5819 26.6216 29.4958C26.5243 29.4101 26.4103 29.3454 26.2868 29.3056C26.1634 29.2659 26.033 29.2521 25.904 29.265L23.5464 29.5092L22.3288 28.4182L22.842 26.0942L25.4851 25.0499L29.8953 25.7115L31.6546 28.001C31.6949 28.0548 32.7252 29.0695 32.7252 29.0695L29.4714 35.3116ZM41.3944 26.7802C41.3112 26.8841 41.2511 27.0044 41.218 27.1332C41.1849 27.262 41.1795 27.3964 41.2023 27.5275L41.23 27.6879L39.6109 26.5375C39.4525 26.4245 39.2628 26.3638 39.0683 26.364C38.8958 26.3636 38.7265 26.4108 38.5792 26.5006C38.4319 26.5903 38.3124 26.7191 38.2337 26.8726L37.5034 28.2979L35.8754 25.9463C35.8054 25.845 35.716 25.7586 35.6125 25.692L33.584 24.3833C33.4325 24.2853 33.2559 24.2333 33.0755 24.2333C32.8077 24.2333 32.5522 24.3482 32.3742 24.5482L32.3008 24.6308C32.1421 24.8097 32.0576 25.0425 32.0646 25.2815C32.0717 25.5206 32.1696 25.748 32.3386 25.9173L33.2991 26.8779L32.2241 27.2412L30.6295 25.1176V24.2391C30.6292 24.0214 30.5533 23.8104 30.4147 23.6424C30.2761 23.4745 30.0835 23.3598 29.8698 23.3181L27.9052 22.9384L26.6219 22.0402C26.4916 21.9499 26.3408 21.8938 26.1831 21.877C26.0255 21.8602 25.8662 21.8832 25.7198 21.944L24.4498 22.4789L23.4448 22.941L23.3432 22.2937L24.5172 21.6138C24.5809 21.5771 24.6399 21.533 24.6933 21.4825L25.9273 20.3135C26.0606 20.1874 26.1541 20.0249 26.1959 19.8461C26.2377 19.6673 26.2261 19.4802 26.1625 19.308L25.815 18.3762L27.7326 16.3234L29.8094 17.3934C29.9423 17.4617 30.0895 17.4973 30.2388 17.4975C30.3844 17.4973 30.528 17.4634 30.6584 17.3985L33.1848 16.1353C33.3147 16.07 33.4277 15.9756 33.5151 15.8595L36.3686 12.0501L37.5257 12.0856L37.4589 12.2667C37.4067 12.4084 37.3895 12.5606 37.4087 12.7104C37.4279 12.8602 37.483 13.0031 37.5693 13.1271C37.7663 13.4096 38.098 13.5648 38.4509 13.5224L47.6107 12.4232C47.6617 12.4171 47.7133 12.414 47.764 12.414C48.443 12.414 49.0073 12.9678 49.0218 13.6485L49.0597 15.4279L49.0595 17.0518L47.8391 15.6094C47.7514 15.5053 47.6421 15.4216 47.5187 15.3642C47.3953 15.3067 47.2609 15.277 47.1248 15.2769C46.925 15.2762 46.7301 15.3394 46.5688 15.4574C46.4075 15.5755 46.2883 15.742 46.2285 15.9327L46.0788 16.4147L45.0145 16.8628C44.8698 16.9234 44.7426 17.0194 44.6448 17.142C44.547 17.2646 44.4816 17.4099 44.4547 17.5644L44.3265 18.2902C44.2891 18.4987 44.3236 18.7136 44.4243 18.8999C44.525 19.0862 44.686 19.2327 44.8808 19.3156L45.8118 19.7077L45.1941 21.8137L43.6616 22.7568C43.461 22.8789 43.3138 23.0721 43.2494 23.298C43.185 23.5239 43.2082 23.7657 43.3143 23.9752L44.0032 25.3426L43.0213 26.3851L42.0815 26.4297C41.9487 26.4362 41.8187 26.4707 41.7003 26.5312C41.5818 26.5916 41.4775 26.6765 41.3944 26.7802ZM50.3924 35.005L49.2914 32.9132C49.2119 32.7618 49.0925 32.635 48.9461 32.5467C48.7997 32.4584 48.6319 32.4119 48.4609 32.4122C48.3081 32.4121 48.1576 32.4494 48.0226 32.5208C47.8876 32.5922 47.772 32.6956 47.6861 32.8219L47.3988 32.4627C47.3111 32.3526 47.1996 32.2638 47.0728 32.2028C46.9459 32.1419 46.8068 32.1104 46.6661 32.1108C46.4961 32.1108 46.3294 32.157 46.1837 32.2445L43.5793 33.8072C43.4561 33.8815 43.3516 33.9831 43.2736 34.104C43.1957 34.225 43.1465 34.3622 43.1297 34.505L42.908 36.4454C42.8931 36.5767 42.906 36.7096 42.9459 36.8355C42.9859 36.9614 43.0519 37.0775 43.1398 37.1761C43.2407 37.2897 43.3679 37.377 43.5102 37.4304C43.6524 37.4838 43.8056 37.5017 43.9564 37.4826L46.1621 37.2017L46.5115 38.0317C46.5829 38.202 46.703 38.3473 46.8568 38.4495C47.0106 38.5516 47.1912 38.606 47.3759 38.6057C47.4296 38.6057 47.4838 38.601 47.5369 38.5918L48.7478 38.3813C48.8946 38.3557 49.0331 38.2955 49.152 38.2059C49.271 38.1162 49.3669 37.9996 49.4319 37.8656L50.4069 35.8506C50.4705 35.7182 50.5023 35.5729 50.4998 35.4261C50.4972 35.2793 50.4605 35.1351 50.3924 35.005ZM48.586 37.4501L47.3804 37.6597L47.0331 36.8348C46.954 36.6461 46.8153 36.4886 46.6381 36.3863C46.461 36.2839 46.2552 36.2425 46.0522 36.2682L43.8471 36.5526L44.0655 34.6175L46.661 33.0531L46.9543 33.4198C47.042 33.5299 47.1533 33.6187 47.2801 33.6797C47.4069 33.7406 47.5459 33.7721 47.6866 33.7717C47.8391 33.7719 47.9893 33.7348 48.1242 33.6637C48.2591 33.5926 48.3747 33.4897 48.4608 33.3638L49.5562 35.4388L48.586 37.4501ZM18.6311 31.3084L14.1774 28.4229C13.8613 28.2177 13.4796 28.139 13.1082 28.2025C12.7367 28.2659 12.4028 28.467 12.1729 28.7655L11.174 28.2063L9.39004 25.6668H10.3C10.5173 25.6666 10.7278 25.5912 10.8958 25.4533L14.279 22.6714L16.1619 21.6043C16.2754 21.5399 16.3743 21.4525 16.4522 21.3477C16.5301 21.2429 16.5853 21.1231 16.6143 20.9958C16.6431 20.8684 16.645 20.7364 16.62 20.6083C16.5949 20.4801 16.5435 20.3586 16.4688 20.2514L14.8018 17.8617C14.7131 17.7344 14.5942 17.6312 14.4558 17.5612C14.3174 17.4912 14.1637 17.4566 14.0087 17.4606C13.8536 17.4643 13.7019 17.5065 13.5672 17.5835C13.4325 17.6604 13.319 17.7695 13.237 17.9012L12.3777 19.2931L11.3925 18.1852L13.3505 16.7454C13.5263 16.6159 13.6514 16.4292 13.7044 16.2175C13.7575 16.0057 13.735 15.7821 13.641 15.585L13.1583 14.5755C13.1023 14.4588 13.0229 14.355 12.9249 14.2704C12.827 14.1858 12.7127 14.1223 12.5891 14.0839C12.4655 14.0458 12.3353 14.0337 12.2068 14.0482C12.0782 14.0627 11.9541 14.1037 11.8421 14.1684L10.9886 14.6658L7.13176 13.0339L4.36158 11.4715C4.19617 11.379 4.00675 11.3385 3.818 11.3553C3.62925 11.372 3.44993 11.4452 3.30339 11.5654L1.83618 12.7774C1.70727 12.8839 1.60917 13.0229 1.55205 13.18L0.556239 15.9187C0.505584 16.0585 0.488809 16.2083 0.507292 16.3559C0.525775 16.5034 0.57899 16.6445 0.662566 16.7675C0.746495 16.8903 0.858328 16.9914 0.988896 17.0626C1.11946 17.1338 1.26505 17.173 1.41371 17.1771L3.52726 17.227L4.86876 20.5437L4.64973 23.8284C4.6368 24.0287 4.68803 24.2279 4.79599 24.3971L6.59965 27.2106C6.70743 27.3795 6.8667 27.5092 7.05391 27.5805L10.5234 28.9084C10.5548 28.9385 10.5898 28.9634 10.6269 28.9832L11.6412 29.5511L11.0965 30.3682C11.0011 30.5107 10.9468 30.6767 10.9394 30.848C10.932 31.0193 10.9718 31.1894 11.0545 31.3396L12.1961 33.4193L12.0473 38.4817C12.0411 38.699 12.1103 38.9117 12.2432 39.0837L13.1641 40.2731C13.3436 40.505 13.6122 40.638 13.9012 40.638C14.0278 40.6378 14.1531 40.6124 14.2698 40.5634C14.3866 40.5143 14.4924 40.4425 14.5812 40.3522C14.7566 40.1725 14.8498 39.9326 14.8437 39.6766L14.8014 37.9954L18.2607 34.6833C18.3849 34.5644 18.474 34.4137 18.5182 34.2475L19.0276 32.3376C19.0789 32.1462 19.0682 31.9434 18.9969 31.7584C18.9257 31.5735 18.7976 31.4159 18.6311 31.3084ZM7.39545 26.7006L5.59285 23.8912L5.81189 20.6065C5.82109 20.4653 5.79844 20.3238 5.74561 20.1925L4.40352 16.8725C4.335 16.7031 4.21846 16.5573 4.06822 16.4532C3.91798 16.3491 3.7406 16.2911 3.55786 16.2864L1.44774 16.2323L2.438 13.5061L3.89728 12.2948L6.66747 13.8574C6.69877 13.875 6.73103 13.8909 6.76281 13.9042L10.6205 15.5364C10.7543 15.5925 10.8993 15.6169 11.0442 15.6079C11.1891 15.5989 11.3299 15.5566 11.4557 15.4843L12.3057 14.9835L12.7906 15.9842L10.8325 17.4239C10.6211 17.5794 10.4837 17.8181 10.4556 18.079C10.4274 18.3399 10.5107 18.6025 10.684 18.7994L11.6682 19.9178C11.7642 20.0281 11.885 20.1142 12.0207 20.1689C12.1563 20.2237 12.303 20.2457 12.4487 20.233C12.5946 20.2217 12.7357 20.1762 12.8607 20.1001C12.9856 20.0241 13.0909 19.9196 13.1679 19.7952L14.0328 18.4114L15.6961 20.782L13.8139 21.8487C13.7666 21.8754 13.7218 21.9061 13.6799 21.9405L10.3001 24.7215L9.24378 24.7217C8.92373 24.7267 8.6337 24.9088 8.48685 25.1968C8.41274 25.3411 8.37947 25.5028 8.39063 25.6646C8.40179 25.8265 8.45696 25.9821 8.55017 26.1149L9.53701 27.5197L7.39545 26.7006ZM17.6068 34.0006L14.1476 37.3126C14.0535 37.4028 13.9793 37.5116 13.9295 37.6321C13.8797 37.7526 13.8555 37.8821 13.8585 38.0124L13.8978 39.6772L12.9918 38.5095L13.1407 33.447C13.1456 33.28 13.1058 33.1148 13.0255 32.9684L11.8827 30.8924L12.8944 29.3751C12.9758 29.2527 13.1022 29.1673 13.2462 29.1376C13.3902 29.1078 13.5402 29.1361 13.6635 29.2162L18.1142 32.0939L17.6068 34.0006ZM16.5743 12.7522L17.0828 13.1375V17.7965C17.0828 18.3142 17.5042 18.7354 18.0222 18.7354C18.2035 18.7354 18.3806 18.6822 18.5343 18.5816L21.7546 16.4761C21.9556 16.3451 22.0985 16.1418 22.1537 15.9083L23.2277 11.3974C23.2671 11.2324 23.261 11.0599 23.21 10.8982C23.1591 10.7365 23.0651 10.5916 22.9383 10.4791L21.9455 9.59655C21.6822 9.36239 21.2934 9.29588 20.9671 9.4295L16.789 11.1388C16.6356 11.2004 16.5014 11.3019 16.4004 11.4328C16.2993 11.5637 16.2351 11.7191 16.2143 11.8832C16.1914 12.047 16.2128 12.2139 16.2761 12.3667C16.3394 12.5195 16.4424 12.6526 16.5743 12.7522ZM21.3176 10.303L22.3081 11.1786L21.2372 15.6852L18.0278 17.7834V13.1376C18.0275 12.9935 17.9941 12.8514 17.9302 12.7222C17.8664 12.5931 17.7738 12.4802 17.6596 12.3924L17.1582 12.009L21.3176 10.303Z" fill="black"/>
</g>
</g>
<defs>
<clipPath id="clip0_254_5443">
<rect width="50" height="50" fill="white" transform="translate(0.5)"/>
</clipPath>
<clipPath id="clip1_254_5443">
<rect width="50" height="50" fill="white" transform="translate(0.5)"/>
</clipPath>
</defs>
</svg>
