<svg width="32" height="32" viewBox="0 0 32 32" fill="none" xmlns="http://www.w3.org/2000/svg">
<path d="M23 10.9731C22.9999 11.4965 22.792 11.9983 22.4219 12.3684L13.0789 21.7129L9.45076 22.9848C9.39025 23.003 9.32594 23.0045 9.26467 22.9891C9.20339 22.9736 9.14743 22.9419 9.10271 22.8973C9.058 22.8527 9.0262 22.7967 9.0107 22.7355C8.9952 22.6742 8.99656 22.6099 9.01465 22.5494L10.2894 18.9219L19.6317 9.5774C20.0018 9.20739 20.5037 8.99955 21.027 8.99962C21.5503 8.99968 22.0522 9.20764 22.4222 9.57775C22.7922 9.94785 23.0001 10.4498 23 10.9731Z" stroke="black" stroke-width="1.5" stroke-linecap="round" stroke-linejoin="round"/>
<path d="M18 11.9996L20 13.9996" stroke="black" stroke-width="1.5" stroke-linecap="round" stroke-linejoin="round"/>
</svg>
