<svg width="172" height="44" viewBox="0 0 172 44" fill="none" xmlns="http://www.w3.org/2000/svg">
<g clip-path="url(#clip0_254_5567)">
<mask id="mask0_254_5567" style="mask-type:luminance" maskUnits="userSpaceOnUse" x="0" y="0" width="172" height="44">
<path d="M172 0.5H0V43.5H172V0.5Z" fill="white"/>
</mask>
<g mask="url(#mask0_254_5567)">
<path d="M0 11.2633C6.09149 11.2633 10.9547 6.40355 10.9547 0.5H21.6424C21.6424 12.3564 11.9111 21.8935 0 21.8935V11.2633Z" fill="black"/>
<path d="M0 21.8945C11.9111 21.8945 21.6424 31.4315 21.6424 43.2879H10.9547C10.9547 37.3844 6.09149 32.5246 0 32.5246V21.8945Z" fill="black"/>
<path d="M21.6426 11.2524V21.9989L43.4186 11.2524V0.605469L21.6426 11.2524Z" fill="black"/>
<path d="M21.6426 22.1055V32.7525L43.4186 43.499V32.7525L21.6426 22.1055Z" fill="black"/>
<path d="M58.1172 5.5H60.1364V12.6328L66.6105 5.5H69.1247L63.7594 11.2842L69.7383 19.6679H67.3227L62.3937 12.7502L60.1364 15.2126V19.6679H58.1172V5.5Z" fill="black"/>
<path d="M71.2871 5.5V13.9035C71.2871 18.3203 73.0294 19.9225 77.0081 19.9225C81.185 19.9225 82.7888 17.8902 82.7888 13.7476V5.5H80.7695V13.9035C80.7695 16.6984 79.7595 18.2029 77.0081 18.2029C74.2567 18.2029 73.3063 16.9135 73.3063 14.1186V5.5H71.2871Z" fill="black"/>
<path fill-rule="evenodd" clip-rule="evenodd" d="M85.3848 5.5H89.8785C93.383 5.5 95.8374 6.26162 95.8374 9.77968C95.8374 13.2977 93.383 14.0594 89.8785 14.0594H87.404V19.6679H85.3848V5.5ZM87.404 12.3201H90.0368C92.1556 12.3201 93.7784 12.0853 93.7784 9.77968C93.7784 7.4741 92.1556 7.18109 90.0368 7.18109H87.404V12.3201Z" fill="black"/>
<path d="M99.779 5.5H97.7598V19.6679H99.779V5.5Z" fill="black"/>
<path d="M108.79 19.6679H106.77V7.21957H102.098V5.5H113.461V7.21957H108.79V19.6679Z" fill="black"/>
<path d="M60.1364 23.4766H58.1172V37.6445H60.1364V33.1893L62.3937 30.7268L67.3227 37.6445H69.7383L63.7594 29.2618L69.1247 23.4766H66.6105L60.1364 30.6104V23.4766Z" fill="black"/>
<path fill-rule="evenodd" clip-rule="evenodd" d="M76.2337 23.4805H78.5696L83.9738 37.6484H81.7962L80.6675 34.5802H74.0759L72.9673 37.6484H70.9082L76.2337 23.4805ZM77.3423 25.4931L74.6896 32.8804H80.034L77.3423 25.4931Z" fill="black"/>
<path fill-rule="evenodd" clip-rule="evenodd" d="M93.0564 31.3562C94.8186 30.8866 95.9073 29.8122 95.9073 27.5648C95.9073 24.1642 93.413 23.4805 89.9285 23.4805H85.375V37.6484H87.3942V31.6876H89.9285C90.304 31.6876 90.6407 31.6876 91.0172 31.6689L94.1253 37.6484H96.3825L93.0564 31.3562ZM90.0868 30.0075H87.3942V25.1606H90.0868C92.2046 25.1606 93.8284 25.4151 93.8284 27.6033C93.8284 29.7915 92.2046 30.0075 90.0868 30.0075Z" fill="black"/>
<path d="M103.404 37.6445H101.385V25.1972H96.7129V23.4766H108.076V25.1972H103.404V37.6445Z" fill="black"/>
<path d="M112.31 23.4766H110.291V37.6445H112.31V23.4766Z" fill="black"/>
<path d="M126.96 23.4766V37.6445H124.01L117.438 25.5484V37.6445H115.418V23.4766H118.388L124.94 35.5343V23.4766H126.96Z" fill="black"/>
<path d="M129.334 23.4815V31.883C129.334 36.2998 131.076 37.902 135.054 37.902C139.232 37.902 140.835 35.8697 140.835 31.7271V23.4805H138.816V31.884C138.816 34.6779 137.806 36.1834 135.054 36.1834C132.303 36.1834 131.353 34.894 131.353 32.099V23.4815H129.334Z" fill="black"/>
<path d="M142.818 35.3984H145.095V37.6458H142.818V35.3984Z" fill="black"/>
<path fill-rule="evenodd" clip-rule="evenodd" d="M155.26 31.3562C157.022 30.8866 158.11 29.8122 158.11 27.5648C158.11 24.1642 155.616 23.4805 152.132 23.4805H147.578V37.6484H149.599V31.6876H152.132C152.509 31.6876 152.845 31.6876 153.221 31.6689L156.329 37.6484H158.586L155.26 31.3562ZM152.494 30.0075H149.801V25.1606H152.494C154.611 25.1606 156.235 25.4151 156.235 27.6033C156.235 29.7915 154.611 30.0075 152.494 30.0075Z" fill="black"/>
<path d="M160.498 31.883V23.4815H162.518V32.099C162.518 34.894 163.468 36.1834 166.219 36.1834C168.97 36.1834 169.981 34.6779 169.981 31.884V23.4805H172V31.7271C172 35.8697 170.397 37.902 166.219 37.902C162.24 37.902 160.498 36.2998 160.498 31.883Z" fill="black"/>
</g>
</g>
<defs>
<clipPath id="clip0_254_5567">
<rect width="172" height="43" fill="white" transform="translate(0 0.5)"/>
</clipPath>
</defs>
</svg>
