<svg width="360" height="90" viewBox="0 0 360 90" fill="none" xmlns="http://www.w3.org/2000/svg">
<mask id="mask0_980_1931" style="mask-type:luminance" maskUnits="userSpaceOnUse" x="0" y="0" width="360" height="90">
<path d="M360 0H0V90H360V0Z" fill="white"/>
</mask>
<g mask="url(#mask0_980_1931)">
<path d="M0 22.5278C12.7496 22.5278 22.9284 12.3563 22.9284 0H45.298C45.298 24.8157 24.9302 44.7771 0 44.7771V22.5278Z" fill="white"/>
<path d="M0 44.7793C24.9302 44.7793 45.298 64.7405 45.298 89.5562H22.9284C22.9284 77.2 12.7496 67.0283 0 67.0283V44.7793Z" fill="white"/>
<path d="M45.2969 22.505V44.9977L90.8745 22.505V0.220703L45.2969 22.505Z" fill="white"/>
<path d="M45.2969 45.2207V67.5051L90.8745 89.9978V67.5051L45.2969 45.2207Z" fill="white"/>
<path d="M121.641 10.4653H125.867V25.3944L139.417 10.4653H144.68L133.45 22.5717L145.964 40.1191H140.908L130.591 25.6402L125.867 30.7941V40.1191H121.641V10.4653Z" fill="white"/>
<path d="M149.207 10.4648V28.0535C149.207 37.298 152.854 40.6515 161.181 40.6515C169.924 40.6515 173.28 36.3978 173.28 27.7273V10.4648H169.054V28.0535C169.054 33.9034 166.94 37.0523 161.181 37.0523C155.422 37.0523 153.433 34.3536 153.433 28.5037V10.4648H149.207Z" fill="white"/>
<path fill-rule="evenodd" clip-rule="evenodd" d="M178.711 10.4648H188.116C195.451 10.4648 200.588 12.0589 200.588 19.4223C200.588 26.7857 195.451 28.3798 188.116 28.3798H182.937V40.1186H178.711V10.4648ZM182.937 24.7394H188.448C192.882 24.7394 196.279 24.2479 196.279 19.4223C196.279 14.5967 192.882 13.9834 188.448 13.9834H182.937V24.7394Z" fill="white"/>
<path d="M208.84 10.4653H204.613V40.1191H208.84V10.4653Z" fill="white"/>
<path d="M227.698 40.1186H223.47V14.0639H213.691V10.4648H237.474V14.0639H227.698V40.1186Z" fill="white"/>
<path d="M125.867 48.0903H121.641V77.7441H125.867V68.4192L130.591 63.2652L140.908 77.7441H145.964L133.45 60.1989L144.68 48.0903H139.417L125.867 63.0215V48.0903Z" fill="white"/>
<path fill-rule="evenodd" clip-rule="evenodd" d="M159.56 48.0986H164.45L175.761 77.7524H171.203L168.841 71.3306H155.044L152.724 77.7524H148.414L159.56 48.0986ZM161.881 52.3111L156.329 67.7728H167.515L161.881 52.3111Z" fill="white"/>
<path fill-rule="evenodd" clip-rule="evenodd" d="M194.769 64.5827C198.457 63.5998 200.736 61.351 200.736 56.6472C200.736 49.5296 195.515 48.0986 188.222 48.0986H178.691V77.7524H182.918V65.2763H188.222C189.008 65.2763 189.713 65.2763 190.501 65.2371L197.006 77.7524H201.73L194.769 64.5827ZM188.553 61.7598H182.918V51.6151H188.553C192.986 51.6151 196.385 52.1478 196.385 56.7278C196.385 61.3077 192.986 61.7598 188.553 61.7598Z" fill="white"/>
<path d="M216.427 77.7446H212.201V51.6921H202.422V48.0908H226.205V51.6921H216.427V77.7446Z" fill="white"/>
<path d="M235.066 48.0908H230.84V77.7446H235.066V48.0908Z" fill="white"/>
<path d="M265.732 48.0908V77.7446H259.557L245.802 52.4271V77.7446H241.574V48.0908H247.791L261.504 73.3279V48.0908H265.732Z" fill="white"/>
<path d="M270.699 48.1007V65.6853C270.699 74.9297 274.345 78.2832 282.671 78.2832C291.416 78.2832 294.771 74.0295 294.771 65.359V48.0986H290.545V65.6874C290.545 71.5351 288.431 74.6861 282.671 74.6861C276.913 74.6861 274.925 71.9874 274.925 66.1374V48.1007H270.699Z" fill="white"/>
<path d="M298.922 73.043H303.688V77.7468H298.922V73.043Z" fill="white"/>
<path fill-rule="evenodd" clip-rule="evenodd" d="M324.961 64.5827C328.649 63.5998 330.927 61.351 330.927 56.6472C330.927 49.5296 325.707 48.0986 318.414 48.0986H308.883V77.7524H313.113V65.2763H318.414C319.204 65.2763 319.907 65.2763 320.694 65.2371L327.199 77.7524H331.923L324.961 64.5827ZM319.172 61.7598H313.536V51.6151H319.172C323.603 51.6151 327.002 52.1478 327.002 56.7278C327.002 61.3077 323.603 61.7598 319.172 61.7598Z" fill="white"/>
<path d="M335.926 65.6853V48.1007H340.154V66.1374C340.154 71.9874 342.142 74.6861 347.9 74.6861C353.658 74.6861 355.774 71.5351 355.774 65.6874V48.0986H360V65.359C360 74.0295 356.645 78.2832 347.9 78.2832C339.572 78.2832 335.926 74.9297 335.926 65.6853Z" fill="white"/>
</g>
</svg>
